<?xml version="1.0" standalone="no"?>
<!DOCTYPE svg PUBLIC "-//W3C//DTD SVG 1.1//EN" "http://www.w3.org/Graphics/SVG/1.1/DTD/svg11.dtd" >
<svg xmlns="http://www.w3.org/2000/svg" xmlns:xlink="http://www.w3.org/1999/xlink" version="1.1">
<metadata>
Created by FontForge 20170731 at Mon Jun 15 16:40:29 2015
 By Aleksey,,,
Copyright (c) 2009 by Jason Smith, Fontsmith Ltd. All rights reserved.
</metadata>
<defs>
<font id="LloydsSans-Bold" horiz-adv-x="1148" >
  <font-face 
    font-family="Lloyds Sans"
    font-weight="700"
    font-stretch="normal"
    units-per-em="2048"
    panose-1="2 0 8 3 4 0 0 2 0 4"
    ascent="1577"
    descent="-471"
    x-height="993"
    cap-height="1417"
    bbox="-169 -449 2048 1885.19"
    underline-thickness="102"
    underline-position="-816"
    unicode-range="U+000D-FB04"
  />
<missing-glyph horiz-adv-x="748" 
d="M68 0v1365h544v-1365h-544zM136 68h408v1229h-408v-1229z" />
    <glyph glyph-name="uniFB01" unicode="fi" horiz-adv-x="1183" 
d="M37 874v78q0 41 39 41h117v60q0 189 83 299q104 139 351 139q156 0 258 -41q23 -9 29.5 -20t3.5 -33l-17 -105q-3 -20 -13.5 -27t-35.5 -1q-106 24 -186 24q-112 0 -166 -51q-60 -57 -60 -178v-66h553q26 0 37.5 -10t11.5 -37v-895q0 -28 -11.5 -39.5t-37.5 -11.5h-145
q-28 0 -39.5 11.5t-11.5 39.5v772h-357v-766q0 -29 -11.5 -43t-39.5 -14h-147q-49 0 -49 53v770h-111q-28 0 -36.5 9.5t-8.5 41.5z" />
    <glyph glyph-name="uniFB02" unicode="fl" horiz-adv-x="1198" 
d="M37 874v78q0 41 39 41h117v56q0 119 28.5 203t91.5 143q104 96 285 96q140 0 281 -49l143 20q28 4 37.5 -4.5t9.5 -34.5v-1372q0 -51 -47 -51h-154q-47 0 -47 49v1211q-94 28 -178 28q-95 0 -143 -45q-60 -55 -60 -188v-62h201q21 0 31 -7.5t10 -27.5v-96q0 -39 -39 -39
h-203v-766q0 -29 -11.5 -43t-39.5 -14h-147q-49 0 -49 53v770h-111q-28 0 -36.5 9.5t-8.5 41.5z" />
    <glyph glyph-name="uniFB03" unicode="ffi" horiz-adv-x="1806" 
d="M37 874v78q0 41 39 41h114v49q0 205 86 318t267 113q109 0 207 -37q22 -7 25.5 -24t-3.5 -52l-16 -86q-4 -21 -15.5 -26.5t-31.5 -0.5q-98 23 -129 23q-78 0 -110 -50t-32 -145v-82h377v60q0 188 84 299q104 139 350 139q156 0 258 -41q23 -9 29.5 -20t3.5 -33l-16 -105
q-3 -20 -13.5 -27t-35.5 -1q-106 24 -187 24q-112 0 -166 -51q-59 -56 -59 -178v-66h553q26 0 37.5 -10t11.5 -37v-895q0 -28 -11.5 -39.5t-37.5 -11.5h-146q-28 0 -39.5 11.5t-11.5 39.5v772h-356v-766q0 -29 -11.5 -43t-39.5 -14h-148q-49 0 -49 53v770h-377v-766
q0 -29 -11.5 -43t-39.5 -14h-147q-50 0 -50 53v770h-110q-28 0 -35.5 9.5t-7.5 41.5z" />
    <glyph glyph-name="uniFB04" unicode="ffl" horiz-adv-x="1820" 
d="M37 874v78q0 41 39 41h114v49q0 205 86 318t267 113q109 0 207 -37q22 -7 25.5 -24t-3.5 -52l-16 -86q-4 -21 -15.5 -26.5t-31.5 -0.5q-98 23 -129 23q-78 0 -110 -50t-32 -145v-82h377v56q0 119 28.5 203t92.5 143q104 96 285 96q139 0 280 -49l144 20q28 4 37.5 -4.5
t9.5 -34.5v-1372q0 -51 -47 -51h-154q-47 0 -47 49v1211q-94 28 -178 28q-96 0 -144 -45q-59 -54 -59 -188v-62h201q21 0 31 -7.5t10 -27.5v-96q0 -39 -39 -39h-203v-766q0 -29 -11.5 -43t-39.5 -14h-148q-49 0 -49 53v770h-377v-766q0 -29 -11.5 -43t-39.5 -14h-147
q-50 0 -50 53v770h-110q-28 0 -35.5 9.5t-7.5 41.5z" />
    <glyph glyph-name=".notdef" horiz-adv-x="748" 
d="M68 0v1365h544v-1365h-544zM136 68h408v1229h-408v-1229z" />
    <glyph glyph-name="glyph1" horiz-adv-x="0" 
 />
    <glyph glyph-name="glyph1" horiz-adv-x="0" 
 />
    <glyph glyph-name="glyph2" horiz-adv-x="682" 
 />
    <glyph glyph-name="uni000D" unicode="&#xd;" horiz-adv-x="495" 
 />
    <glyph glyph-name="space" unicode=" " horiz-adv-x="495" 
 />
    <glyph glyph-name="exclam" unicode="!" horiz-adv-x="530" 
d="M127 104q0 61 41.5 97.5t97.5 36.5t96.5 -36t40.5 -96q0 -58 -42 -94.5t-95 -36.5q-54 0 -96.5 35t-42.5 94zM152 1378q0 22 7.5 30.5t28.5 8.5h164q21 0 29 -8.5t8 -30.5l-24 -1024q0 -21 -9 -30t-30 -9h-111q-24 0 -32.5 9t-8.5 32z" />
    <glyph glyph-name="quotedbl" unicode="&#x22;" horiz-adv-x="677" 
d="M82 1407q0 19 9 28t32 9h133q24 0 33.5 -9.5t7.5 -27.5l-16 -324q-2 -22 -8.5 -30.5t-26.5 -8.5h-113q-20 0 -26.5 8.5t-8.5 30.5zM379 1407q0 19 9 28t32 9h133q24 0 33.5 -9.5t7.5 -27.5l-16 -324q-2 -22 -8.5 -30.5t-26.5 -8.5h-113q-20 0 -26.5 8.5t-8.5 30.5z" />
    <glyph glyph-name="numbersign" unicode="#" 
d="M37 442l14 117q3 20 11.5 26.5t27.5 6.5h154l35 227h-142q-22 0 -30.5 8.5t-6.5 28.5l15 117q3 20 11.5 26.5t27.5 6.5h153l58 380q3 19 10 25t26 6h150q24 0 32 -8.5t5 -30.5l-58 -372h170l60 380q3 19 10.5 25t26.5 6h149q24 0 32 -8.5t5 -30.5l-61 -372h153
q22 0 30.5 -8.5t6.5 -28.5l-14 -117q-3 -20 -11.5 -26.5t-27.5 -6.5h-164l-35 -227h152q22 0 30.5 -8.5t6.5 -28.5l-15 -117q-3 -20 -11.5 -26t-27.5 -6h-166l-55 -375q-3 -19 -10.5 -25t-26.5 -6h-149q-24 0 -32 8.5t-5 30.5l55 367h-168l-55 -375q-3 -19 -10.5 -25
t-26.5 -6h-149q-24 0 -32 8.5t-5 30.5l55 367h-141q-23 0 -31 8.5t-6 27.5zM467 592h170l35 227h-166z" />
    <glyph glyph-name="dollar" unicode="$" 
d="M123 1061q0 109 59 194t149.5 131t198.5 56v162q0 32 31 32h62q21 0 27.5 -6.5t6.5 -27.5v-158q154 -9 301 -72q37 -15 37 -41q0 -8 -4 -20l-45 -127q-10 -27 -30 -29.5t-44 10.5q-104 45 -215 60v-396l97 -45q290 -136 290 -381q0 -176 -107 -283.5t-280 -135.5v-150
q0 -19 -1.5 -26.5t-10 -12t-27.5 -4.5h-51q-24 0 -30.5 9t-6.5 34v141q-179 0 -368 66q-27 10 -33 24.5t2 43.5l37 129q12 41 65 24q152 -57 295 -63h2v434l-170 82q-112 54 -174.5 141.5t-62.5 204.5zM381 1069q0 -64 37 -103.5t112 -76.5v334q-61 -10 -105 -51.5
t-44 -102.5zM657 215q63 20 101.5 64t38.5 108q0 63 -39.5 111t-100.5 75v-358z" />
    <glyph glyph-name="percent" unicode="%" horiz-adv-x="1630" 
d="M74 1057q0 170 80 269t223 99t223 -99t80 -269q0 -171 -80 -270t-223 -99t-223 99t-80 270zM269 -12q-10 13 3 35l858 1382q13 23 27.5 31t42.5 8h125q28 0 38 -12.5t-3 -34.5l-858 -1383q-13 -23 -27.5 -31t-42.5 -8h-125q-28 0 -38 13zM274 1057q0 -213 103 -213
q102 0 102 213t-102 213q-103 0 -103 -213zM950 360q0 171 80 270t223 99t223 -99t80 -270q0 -170 -80 -269t-223 -99t-223 99t-80 269zM1151 360q0 -213 102 -213q103 0 103 213t-103 213q-102 0 -102 -213z" />
    <glyph glyph-name="ampersand" unicode="&#x26;" horiz-adv-x="1413" 
d="M51 389q0 73 26.5 137.5t76 117.5t100 92t119.5 81l-56 64q-57 65 -84.5 123.5t-27.5 128.5q0 133 109 222t257 89q149 0 250 -85t101 -220q0 -43 -14.5 -85t-36 -74.5t-55 -66.5t-63 -58t-69.5 -52l305 -348q127 171 141 407q1 23 9.5 31t29.5 8h123q22 0 29.5 -7
t7.5 -26q0 -161 -60 -309.5t-143 -247.5q98 -92 258 -139q22 -6 26.5 -14.5t-1.5 -30.5l-35 -115q-5 -16 -13 -23t-26 -7q-69 0 -183 52.5t-181 123.5q-209 -183 -459 -183q-126 0 -230.5 50t-167.5 145.5t-63 218.5zM303 408q0 -100 69.5 -164t172.5 -64q82 0 159 31.5
t127 83.5l-337 383q-89 -65 -140 -129.5t-51 -140.5zM451 1141q0 -63 67 -142l47 -55q55 38 96 90t41 101q0 53 -35 89t-92 36q-54 0 -89 -34t-35 -85z" />
    <glyph glyph-name="quotesingle" unicode="'" horiz-adv-x="380" 
d="M82 1407q0 19 9 28t32 9h133q24 0 33.5 -9.5t7.5 -27.5l-16 -324q-2 -22 -8.5 -30.5t-26.5 -8.5h-113q-20 0 -26.5 8.5t-8.5 30.5z" />
    <glyph glyph-name="parenleft" unicode="(" horiz-adv-x="669" 
d="M86 600q0 233 90.5 454.5t255.5 405.5q28 32 60 15l98 -56q32 -17 4 -53q-264 -354 -264 -766t264 -766q28 -36 -4 -53l-98 -55q-33 -17 -60 14q-165 184 -255.5 405.5t-90.5 454.5z" />
    <glyph glyph-name="parenright" unicode=")" horiz-adv-x="669" 
d="M76 -166q264 354 264 766t-264 766q-28 36 4 53l98 56q32 17 60 -15q165 -184 255.5 -405.5t90.5 -454.5t-90.5 -454.5t-255.5 -405.5q-27 -31 -60 -14l-98 55q-32 17 -4 53z" />
    <glyph glyph-name="asterisk" unicode="*" horiz-adv-x="753" 
d="M81.5 1175.5q-6.5 9.5 0.5 28.5l41 121q11 36 47 14l166 -102l-45 195q-5 22 1 31.5t25 9.5h121q35 0 27 -41l-45 -195l164 102q36 22 47 -14l41 -121q7 -19 0.5 -28.5t-29.5 -10.5l-190 -16l155 -145q24 -24 -8 -46l-100 -63q-17 -11 -27.5 -8t-17.5 22l-78 189
l-78 -189q-7 -19 -17.5 -22t-27.5 8l-100 63q-33 22 -9 46l158 145l-192 16q-23 1 -29.5 10.5z" />
    <glyph glyph-name="plus" unicode="+" horiz-adv-x="1071" 
d="M78 483v115q0 27 10 38t37 11h303v297q0 30 11.5 41.5t39.5 11.5h109q30 0 42.5 -11t12.5 -40v-299h297q30 0 41.5 -11.5t11.5 -39.5v-109q0 -30 -11 -42.5t-40 -12.5h-299v-301q0 -28 -12.5 -38.5t-38.5 -10.5h-115q-27 0 -38 10t-11 37v303h-301q-28 0 -38.5 12.5
t-10.5 38.5z" />
    <glyph glyph-name="comma" unicode="," horiz-adv-x="448" 
d="M82 -260q-17 22 6 45q84 84 84 147q0 29 -42 85.5t-42 95.5q0 59 41 98t100 39q63 0 105.5 -53t42.5 -119q0 -108 -57.5 -205t-149.5 -162q-20 -14 -37 -14q-16 0 -31 18z" />
    <glyph glyph-name="hyphen" unicode="-" horiz-adv-x="587" 
d="M72 475v133q0 27 10 38t37 11h344q30 0 41.5 -11.5t11.5 -39.5v-129q0 -30 -11 -42.5t-40 -12.5h-344q-28 0 -38.5 13t-10.5 40z" />
    <glyph glyph-name="period" unicode="." horiz-adv-x="448" 
d="M90 111q0 63 43 101t103 38q59 0 102 -37.5t43 -99.5q0 -60 -44.5 -99t-100.5 -39q-58 0 -102 37.5t-44 98.5z" />
    <glyph glyph-name="slash" unicode="/" horiz-adv-x="688" 
d="M16 25l430 1378q7 25 18.5 33t37.5 8h139q45 0 31 -49l-430 -1379q-7 -25 -18.5 -33t-37.5 -8h-139q-45 0 -31 50z" />
    <glyph glyph-name="zero" unicode="0" 
d="M68 702q0 118 18.5 225t59 202t99.5 164.5t145 110t190 40.5q106 0 191.5 -39.5t142.5 -107t95.5 -161.5t55 -199t16.5 -224q0 -120 -17 -226t-55.5 -201t-96.5 -163t-144 -108t-193 -40t-193.5 38.5t-144 105.5t-96.5 160t-56 198.5t-17 224.5zM342 713
q0 -244 54.5 -376t178.5 -132q64 0 110 36t72 105t38 159t12 208q0 504 -227 504q-122 0 -180 -134t-58 -370z" />
    <glyph glyph-name="one" unicode="1" 
d="M160 1081q-22 47 20 70l410 244q38 22 92 22h98q51 0 51 -51v-1305q0 -35 -14.5 -48t-48.5 -13h-133q-40 0 -53 11.5t-13 47.5v1069l-284 -161q-52 -30 -76 18z" />
    <glyph glyph-name="two" unicode="2" 
d="M104 63v99q0 30 7.5 47t29.5 39q61 62 192.5 185.5t190.5 184.5q126 131 190 230.5t64 183.5q0 92 -58 140.5t-153 48.5q-129 0 -295 -91q-46 -24 -67 21l-47 102q-20 47 22 70q198 121 422 121q197 0 321 -104t124 -291q0 -57 -15 -113.5t-46.5 -112.5t-65.5 -104.5
t-87.5 -106.5t-96 -100t-105.5 -102q-21 -20 -95 -89t-108 -102h543q32 0 45.5 -11t13.5 -40v-109q0 -59 -59 -59h-803q-36 0 -50 14t-14 49z" />
    <glyph glyph-name="three" unicode="3" 
d="M111 133l36 100q14 44 66 23q150 -66 285 -66q122 0 193 65.5t71 172.5q0 66 -29.5 114t-79 73.5t-104 37t-115.5 11.5h-37q-49 0 -49 55v86q0 27 10 40t37 13h68q116 0 180 50t64 151q0 84 -56 130t-151 46q-120 0 -258 -72q-49 -24 -66 19l-39 98q-14 40 19 61
q159 103 385 103q83 0 159 -23.5t136 -67.5t95.5 -114.5t35.5 -157.5q0 -108 -62 -194t-157 -117q115 -31 194.5 -126t79.5 -224q0 -132 -72 -235t-187 -156.5t-249 -53.5q-218 0 -375 80q-47 23 -28 78z" />
    <glyph glyph-name="four" unicode="4" 
d="M57 371v75q0 50 27 103l387 815q13 29 28 41t44 12h147q31 0 39.5 -19.5t-4.5 -45.5l-381 -826h416v318q0 29 14 40t43 11h148q30 0 43.5 -11t13.5 -40v-793q0 -51 -57 -51h-150q-28 0 -41.5 12t-13.5 41v254h-645q-34 0 -46 16.5t-12 47.5z" />
    <glyph glyph-name="five" unicode="5" 
d="M123 143l47 109q20 45 70 16q134 -75 301 -75q113 0 186.5 64.5t73.5 176.5q0 125 -78 193q-90 78 -272 78h-170q-37 0 -53.5 19t-16.5 58v566q0 39 15 54t50 15h664q31 0 45 -13.5t14 -43.5v-107q0 -30 -13 -43.5t-44 -13.5h-471v-297h37q114 0 212 -26t176.5 -79
t123.5 -142t45 -206q0 -219 -152 -345t-385 -126q-199 0 -378 95q-48 25 -27 73z" />
    <glyph glyph-name="six" unicode="6" 
d="M94 612q0 128 23 247t73 226t122.5 186.5t179 126t235.5 46.5q105 0 203 -31q25 -7 32.5 -21.5t2.5 -39.5l-25 -111q-5 -21 -20.5 -30.5t-38.5 -2.5q-76 23 -136 23q-71 0 -129 -21.5t-98 -58.5t-68.5 -89t-43.5 -109.5t-21 -123.5q105 86 256 86q192 0 311 -112
t119 -320q0 -102 -32.5 -194t-91.5 -162t-149.5 -111t-199.5 -41q-112 0 -200 36t-144 95.5t-93 143t-52 172.5t-15 190zM365 549q0 -170 60 -263t175 -93q69 0 117 43t67 102t19 127q0 103 -49 170t-148 67q-62 0 -129.5 -29t-111.5 -73v-51z" />
    <glyph glyph-name="seven" unicode="7" 
d="M123 1249v113q0 28 11 41.5t40 13.5h834q31 0 44 -13t13 -42v-100q0 -43 -23 -93l-538 -1116q-17 -32 -35.5 -42.5t-54.5 -10.5h-181q-29 0 -37.5 23.5t5.5 46.5l557 1122h-582q-53 0 -53 57z" />
    <glyph glyph-name="eight" unicode="8" 
d="M74 395q0 117 76.5 213.5t193.5 151.5q-92 44 -150.5 128t-58.5 183q0 113 60.5 199t161.5 130t225 44q187 0 308.5 -97t121.5 -270q0 -92 -62.5 -177t-152.5 -132q127 -52 203.5 -145t76.5 -205q0 -133 -70.5 -235.5t-185 -155t-250.5 -52.5q-103 0 -192 26.5
t-157.5 77.5t-108 132.5t-39.5 183.5zM338 408q0 -100 70.5 -164t169.5 -64q101 0 168 60.5t67 165.5q0 161 -256 260q-94 -45 -156.5 -110t-62.5 -148zM393 1077q0 -71 54 -128t137 -97q168 93 168 217q0 76 -49.5 124t-131.5 48q-73 0 -125.5 -48t-52.5 -116z" />
    <glyph glyph-name="nine" unicode="9" 
d="M84 936q0 102 32.5 194t91.5 162t149.5 111t199.5 41q112 0 200 -36t144 -95.5t93 -143t52 -172.5t15 -190q0 -128 -23 -247t-73 -226t-122.5 -186.5t-179 -126t-235.5 -46.5q-105 0 -203 31q-45 13 -35 62l25 110q5 21 20.5 30.5t38.5 2.5q76 -23 136 -23q71 0 129 21.5
t98 58.5t68.5 89t43.5 109.5t21 123.5q-105 -86 -256 -86q-192 0 -311 112t-119 320zM352 954q0 -103 49 -170t148 -67q62 0 130.5 29t111.5 73v51q0 170 -60.5 263.5t-175.5 93.5q-53 0 -93.5 -24.5t-63.5 -65.5t-34.5 -87.5t-11.5 -95.5z" />
    <glyph glyph-name="colon" unicode=":" horiz-adv-x="485" 
d="M113 113q0 64 43 100.5t102 36.5q58 0 101.5 -36t43.5 -99q0 -61 -45 -100.5t-100 -39.5q-57 0 -101 38t-44 100zM113 881q0 64 43 101.5t102 37.5q58 0 101.5 -38t43.5 -101q0 -61 -45 -99.5t-100 -38.5q-57 0 -101 38t-44 100z" />
    <glyph glyph-name="semicolon" unicode=";" horiz-adv-x="485" 
d="M106 -260q-16 22 7 45q84 84 84 147q0 29 -42 85.5t-42 95.5q0 59 41 98t100 39q63 0 105 -53t42 -119q0 -108 -57 -205.5t-149 -161.5q-20 -14 -37 -14q-16 0 -31 18zM113 881q0 64 43 101.5t102 37.5q58 0 101.5 -38t43.5 -101q0 -61 -45 -99.5t-100 -38.5
q-57 0 -101 38t-44 100z" />
    <glyph glyph-name="less" unicode="&#x3c;" horiz-adv-x="1071" 
d="M109 524v62q0 22 7 34.5t27 24.5l676 418q42 25 60 -8l71 -121q11 -18 9 -29.5t-21 -23.5l-516 -326l516 -326q19 -12 21 -23.5t-9 -29.5l-71 -121q-18 -33 -60 -8l-676 418q-20 12 -27 24.5t-7 34.5z" />
    <glyph glyph-name="equal" unicode="=" horiz-adv-x="1071" 
d="M78 295v115q0 27 10 38t37 11h815q30 0 41.5 -11.5t11.5 -39.5v-109q0 -30 -11 -42.5t-40 -12.5h-815q-28 0 -38.5 12.5t-10.5 38.5zM78 688v115q0 27 10 38t37 11h815q30 0 41.5 -11.5t11.5 -39.5v-109q0 -30 -11 -42.5t-40 -12.5h-815q-28 0 -38.5 12.5t-10.5 38.5z
" />
    <glyph glyph-name="greater" unicode="&#x3e;" horiz-adv-x="1071" 
d="M110 205.5q2 11.5 21 23.5l516 326l-516 326q-19 12 -21 23.5t9 29.5l71 121q18 33 60 8l676 -418q20 -12 27.5 -24.5t7.5 -34.5v-62q0 -22 -7.5 -34.5t-27.5 -24.5l-676 -418q-42 -25 -60 8l-71 121q-11 18 -9 29.5z" />
    <glyph glyph-name="question" unicode="?" horiz-adv-x="901" 
d="M96 1311q-11 33 15 47q154 86 331 86q160 0 272.5 -94.5t112.5 -251.5q0 -151 -135 -293l-149 -158q-44 -45 -64.5 -85t-23.5 -107q0 -13 1 -43t1 -35q0 -31 -31 -31h-131q-18 0 -26.5 6.5t-12.5 24.5q-14 65 -14 121q0 132 104 239l146 150q100 105 100 186
q0 91 -57 132.5t-142 41.5q-46 0 -106 -16.5t-107 -42.5q-32 -17 -43 12zM225 104q0 61 42 97.5t98 36.5t96.5 -36t40.5 -96q0 -58 -42 -94.5t-95 -36.5q-54 0 -97 35t-43 94z" />
    <glyph glyph-name="at" unicode="@" horiz-adv-x="1703" 
d="M100 631q0 173 66.5 325t179.5 258.5t267.5 168t326.5 61.5q192 0 344 -77t240 -223.5t88 -338.5q0 -68 -17.5 -138.5t-53 -135t-83 -114.5t-113 -80t-137.5 -30q-78 0 -136 36.5t-71 111.5h-2q-90 -129 -227 -129q-61 0 -107.5 23.5t-73.5 64t-40.5 91.5t-13.5 111
q0 82 26.5 164.5t73.5 150.5t120 111t158 43q54 0 100 -27.5t64 -76.5l15 57q5 21 30 21h95q33 0 26 -31l-100 -414q-15 -62 -15 -104t21 -68t63 -26q95 -2 167.5 106.5t72.5 280.5q0 226 -142 351.5t-374 125.5q-129 0 -242.5 -51.5t-192 -138.5t-124 -205t-45.5 -248
q0 -245 146 -376.5t394 -131.5q183 0 353 66q28 11 39 -15l28 -76q7 -14 4.5 -24.5t-20.5 -18.5q-173 -86 -424 -86q-157 0 -293 42.5t-239 123t-162.5 206.5t-59.5 284zM741 621q0 -51 22 -90t68 -39q88 0 146 108l57 246q-25 94 -102 94q-48 0 -86.5 -35t-60 -87.5
t-33 -104t-11.5 -92.5z" />
    <glyph glyph-name="A" unicode="A" horiz-adv-x="1316" 
d="M17.5 14.5q-7.5 14.5 0.5 36.5l500 1325q16 41 55 41h164q45 0 58 -37l503 -1327q8 -22 0 -37.5t-30 -15.5h-187q-31 0 -45 11t-24 38l-107 301h-518l-106 -307q-13 -43 -56 -43h-176q-24 0 -31.5 14.5zM457 549h379l-146 432q-17 55 -41 133h-4q-8 -28 -43 -135z" />
    <glyph glyph-name="B" unicode="B" horiz-adv-x="1224" 
d="M147 59v1305q0 31 14 42t48 11h307q254 0 384 -83t130 -263q0 -111 -61 -194t-170 -107v-2q150 -11 246 -106.5t96 -247.5q0 -414 -559 -414h-381q-32 0 -43 13t-11 46zM410 203h151q127 0 193 26q118 51 118 193q0 136 -108 190q-75 37 -219 37h-135v-446zM410 836h106
q125 0 190.5 44t65.5 160q0 177 -248 177h-114v-381z" />
    <glyph glyph-name="C" unicode="C" horiz-adv-x="1220" 
d="M90 702q0 157 46.5 293t130.5 235.5t210 156.5t277 57q208 0 385 -86q25 -12 30 -24t-4 -38l-47 -129q-8 -25 -27 -25q-10 0 -24 7q-142 74 -297 74q-83 0 -150.5 -29.5t-112 -78.5t-75 -115.5t-44 -138t-13.5 -148.5q0 -238 106 -377t293 -139q150 0 295 65
q20 10 33.5 7t21.5 -25l45 -121q5 -12 5 -23q0 -27 -33 -41q-206 -84 -408 -84q-159 0 -282.5 54t-201.5 151.5t-118.5 229.5t-40.5 292z" />
    <glyph glyph-name="D" unicode="D" horiz-adv-x="1417" 
d="M147 57v1299q0 33 13.5 47t50.5 14h295q182 0 306.5 -23.5t223.5 -80.5q141 -81 217 -234.5t76 -376.5q0 -357 -223 -548q-185 -154 -508 -154h-391q-33 0 -46.5 11.5t-13.5 45.5zM414 221h157q115 0 200.5 24t146.5 85q129 129 129 375q0 285 -160 405q-116 84 -324 84
h-149v-973z" />
    <glyph glyph-name="E" unicode="E" horiz-adv-x="1101" 
d="M150 55v1311q0 51 47 51h772q29 0 37.5 -11.5t5.5 -35.5l-15 -123q-3 -26 -18.5 -34.5t-50.5 -8.5h-514v-370h475q28 0 38.5 -11.5t10.5 -34.5v-120q0 -23 -10.5 -34t-38.5 -11h-475v-410h549q51 0 51 -47v-117q0 -49 -49 -49h-760q-32 0 -43.5 11t-11.5 44z" />
    <glyph glyph-name="F" unicode="F" horiz-adv-x="1089" 
d="M150 55v1311q0 51 47 51h768q48 0 48 -38q0 -4 -1 -9l-15 -123q-3 -26 -16.5 -34.5t-44.5 -8.5h-522v-370h473q51 0 51 -46v-116q0 -26 -11.5 -37.5t-37.5 -11.5h-475v-572q0 -28 -11.5 -39.5t-37.5 -11.5h-160q-32 0 -43.5 11t-11.5 44z" />
    <glyph glyph-name="G" unicode="G" horiz-adv-x="1390" 
d="M88 705q0 213 85.5 380.5t244 263t364.5 95.5q201 0 375 -78q25 -11 29 -27t-6 -34l-50 -127q-9 -23 -31 -23q-11 0 -26 6q-56 24 -134 42t-144 18q-84 0 -160 -30.5t-129 -86.5q-135 -141 -135 -391q0 -239 105.5 -377.5t289.5 -138.5q150 0 231 34v392h-182
q-23 0 -34 10t-11 35v125q0 24 11 32.5t36 8.5h397q27 0 38.5 -10.5t11.5 -37.5v-639q0 -31 -10.5 -46.5t-39.5 -30.5q-84 -42 -212 -68.5t-246 -26.5q-314 0 -491 199.5t-177 530.5z" />
    <glyph glyph-name="H" unicode="H" horiz-adv-x="1411" 
d="M150 51v1317q0 49 55 49h160q26 0 38.5 -11t12.5 -38v-534h581v534q0 49 54 49h161q26 0 38 -11t12 -38v-1317q0 -27 -12 -39t-38 -12h-161q-28 0 -41 12t-13 39v572h-581v-572q0 -27 -12 -39t-39 -12h-160q-55 0 -55 51z" />
    <glyph glyph-name="I" unicode="I" horiz-adv-x="823" 
d="M119 1286v90q0 41 37 41h501q21 0 32 -11.5t11 -27.5v-90q0 -24 -10 -33.5t-33 -9.5h-116v-1073h112q43 0 43 -43v-88q0 -41 -37 -41h-491q-41 0 -41 39v92q0 22 9.5 31.5t31.5 9.5h111v1073h-119q-41 0 -41 41z" />
    <glyph glyph-name="J" unicode="J" horiz-adv-x="858" 
d="M86 43l20 117q4 23 15 29t35 1q54 -12 104 -12q96 0 141 55q43 58 43 191v821h-231q-43 0 -43 45v84q0 43 43 43h444q23 0 36.5 -12.5t13.5 -34.5v-901q0 -296 -144 -410q-110 -84 -299 -84q-77 0 -147 17q-22 6 -28.5 16.5t-2.5 34.5z" />
    <glyph glyph-name="K" unicode="K" horiz-adv-x="1220" 
d="M150 51v1317q0 49 51 49h164q26 0 37.5 -11t11.5 -38v-580h4l422 592q27 37 75 37h158q37 0 37 -26q0 -17 -16 -39l-461 -619l534 -657q25 -31 25 -49q0 -27 -39 -27h-195q-35 0 -55.5 11.5t-42.5 39.5l-442 567h-4v-567q0 -28 -11.5 -39.5t-37.5 -11.5h-164
q-28 0 -39.5 11.5t-11.5 39.5z" />
    <glyph glyph-name="L" unicode="L" horiz-adv-x="1009" 
d="M150 57v1309q0 51 49 51h163q28 0 40 -12t12 -41v-1145h518q49 0 49 -47v-123q0 -49 -49 -49h-725q-29 0 -43 12.5t-14 44.5z" />
    <glyph glyph-name="M" unicode="M" horiz-adv-x="1787" 
d="M147 53l52 1317q1 26 12.5 36.5t36.5 10.5h121q29 0 43.5 -10t25.5 -35l473 -1012h4l433 1012q11 25 24.5 35t40.5 10h121q25 0 35 -10t12 -35l61 -1317q2 -28 -8.5 -41.5t-38.5 -13.5h-165q-31 0 -41.5 14t-12.5 54l-28 831h-5l-348 -862q-9 -22 -20.5 -29.5t-34.5 -7.5
h-72q-26 0 -39.5 7.5t-23.5 31.5l-387 860h-4l-19 -848q0 -32 -12.5 -41.5t-42.5 -9.5h-139q-30 0 -42.5 12t-11.5 41z" />
    <glyph glyph-name="N" unicode="N" horiz-adv-x="1488" 
d="M150 51v1311q0 31 13 43t42 12h133q25 0 40 -8.5t30 -30.5l673 -925h4v911q0 53 54 53h149q28 0 40.5 -12t12.5 -41v-1309q0 -32 -12 -43.5t-37 -11.5h-131q-52 0 -84 43l-667 913h-4v-903q0 -53 -54 -53h-147q-30 0 -42.5 10.5t-12.5 40.5z" />
    <glyph glyph-name="O" unicode="O" horiz-adv-x="1423" 
d="M88 705q0 219 77 386.5t220.5 260t333.5 92.5q149 0 267 -54.5t194 -152t115.5 -229.5t39.5 -291q0 -171 -47 -311t-130.5 -234t-199.5 -145.5t-253 -51.5q-290 0 -453.5 197t-163.5 533zM371 711q0 -252 88.5 -382t253.5 -130q156 0 248 133.5t92 378.5q0 255 -87 382.5
t-253 127.5q-155 0 -248.5 -136.5t-93.5 -373.5z" />
    <glyph glyph-name="P" unicode="P" horiz-adv-x="1138" 
d="M150 55v1307q0 31 11 43t40 12h297q170 0 287.5 -36t189.5 -119q102 -117 102 -291q0 -231 -162 -361q-146 -112 -409 -112h-92v-449q0 -49 -52 -49h-163q-25 0 -37 12.5t-12 42.5zM414 700h55q105 0 171.5 14.5t109.5 61.5q61 67 61 185q0 133 -75.5 192t-215.5 59h-106
v-512z" />
    <glyph glyph-name="Q" unicode="Q" horiz-adv-x="1411" 
d="M88 702q0 155 42 289t120 235.5t199 159.5t270 58q154 0 273.5 -57.5t193.5 -158.5t111.5 -230.5t37.5 -280.5q0 -217 -78 -387t-227 -262q117 -65 289 -115q36 -10 45 -27.5t-2 -44.5l-37 -108q-11 -31 -31 -35q-4 -1 -9 -1q-23 0 -75 15q-43 14 -93 39t-72.5 38
t-82.5 52.5t-61 40.5q-33 22 -50.5 31.5t-48 18t-67.5 8.5q-59 0 -88 2q-110 7 -201 46.5t-157 104.5t-111.5 153.5t-67.5 193t-22 222.5zM371 711q0 -156 34.5 -269t112.5 -180t195 -67q110 0 187.5 67.5t115 182.5t37.5 266q0 240 -83 375t-257 135q-108 0 -186.5 -68
t-117 -182t-38.5 -260z" />
    <glyph glyph-name="R" unicode="R" horiz-adv-x="1212" 
d="M150 51v1307q0 34 11 46.5t44 12.5h303q343 0 475 -151q98 -113 98 -287q0 -140 -70 -247t-194 -161l330 -510q18 -28 13 -44.5t-34 -16.5h-182q-32 0 -48 8.5t-30 32.5l-295 481h-157v-471q0 -51 -47 -51h-168q-49 0 -49 51zM414 721h127q126 0 199 66t73 188
q0 242 -297 242h-102v-496z" />
    <glyph glyph-name="S" unicode="S" horiz-adv-x="1105" 
d="M98 1057q0 90 41.5 165t110 122.5t151.5 73.5t170 26q199 0 367 -72q30 -12 37.5 -26.5t-2.5 -40.5l-49 -125q-11 -30 -38 -30q-13 0 -30 7q-149 64 -270 64q-83 0 -145 -38.5t-62 -117.5q0 -96 145 -166l228 -111q131 -63 201.5 -152t70.5 -222q0 -83 -26 -154.5
t-72.5 -123.5t-109 -88.5t-136.5 -54.5t-154 -18q-202 0 -391 66q-26 10 -33 26t2 39l43 134q9 32 39 32q13 0 29 -6q167 -61 305 -61q43 0 84 10.5t75.5 31.5t55.5 57.5t21 82.5q0 65 -40 107.5t-110 76.5l-266 134q-113 56 -177.5 146t-64.5 206z" />
    <glyph glyph-name="T" unicode="T" horiz-adv-x="1177" 
d="M27 1253v121q0 43 45 43h1038q38 0 51 -11t10 -40l-14 -119q-3 -24 -17.5 -33.5t-45.5 -9.5h-371v-1153q0 -28 -11.5 -39.5t-37.5 -11.5h-166q-28 0 -39.5 11.5t-11.5 39.5v1153h-383q-26 0 -36.5 11t-10.5 38z" />
    <glyph glyph-name="U" unicode="U" horiz-adv-x="1474" 
d="M143 633v735q0 49 54 49h161q26 0 38 -11.5t12 -37.5v-713q0 -236 74 -346t261 -110q179 0 252.5 112.5t73.5 343.5v713q0 49 51 49h162q26 0 37.5 -11.5t11.5 -37.5v-739q0 -319 -150.5 -486.5t-447.5 -167.5q-160 0 -274 43t-183 129t-101 205.5t-32 280.5z" />
    <glyph glyph-name="V" unicode="V" horiz-adv-x="1335" 
d="M41.5 1400.5q9.5 16.5 36.5 16.5h178q33 0 49 -9.5t25 -33.5l362 -1012h6l342 1006q9 28 24.5 38.5t51.5 10.5h141q42 0 42 -31q0 -10 -5 -24l-479 -1317q-10 -25 -22.5 -35t-40.5 -10h-136q-54 0 -71 51l-502 1305q-11 28 -1.5 44.5z" />
    <glyph glyph-name="W" unicode="W" horiz-adv-x="1925" 
d="M39 1356q-9 32 1 46.5t42 14.5h186q32 0 47 -11.5t23 -39.5l250 -944h2l260 950q7 26 20 35.5t41 9.5h133q30 0 43 -9.5t19 -33.5l260 -952h4l248 948q8 28 20.5 37.5t42.5 9.5h160q30 0 40 -14t1 -47l-379 -1301q-9 -32 -24 -43.5t-47 -11.5h-127q-31 0 -47 12t-23 41
l-266 938h-4l-267 -932q-10 -35 -26 -47t-49 -12h-117q-35 0 -50 12.5t-26 48.5z" />
    <glyph glyph-name="X" unicode="X" horiz-adv-x="1241" 
d="M40 17q-7 17 7 40l424 672l-395 633q-13 20 -6 37.5t32 17.5h197q48 0 74 -45l252 -424h2l258 430q14 23 27.5 31t41.5 8h185q25 0 31.5 -17.5t-7.5 -37.5l-403 -612l438 -691q15 -25 6 -42t-37 -17h-194q-54 0 -80 45l-283 477h-2l-282 -477q-14 -25 -32 -35t-50 -10
h-170q-27 0 -34 17z" />
    <glyph glyph-name="Y" unicode="Y" horiz-adv-x="1212" 
d="M36 1401q8 16 34 16h190q53 0 72 -39l295 -579h4l291 575q12 25 27 34t44 9h150q36 0 36 -23q0 -11 -8 -28l-421 -780v-539q0 -47 -48 -47h-172q-47 0 -47 51v524l-444 793q-11 17 -3 33z" />
    <glyph glyph-name="Z" unicode="Z" horiz-adv-x="1198" 
d="M57 43v63q0 33 21 66l678 1030v2h-600q-28 0 -40 10.5t-12 36.5v125q0 41 41 41h916q49 0 49 -45v-49q0 -49 -25 -88l-673 -1020v-2h680q24 0 35.5 -10t11.5 -37v-117q0 -49 -52 -49h-991q-39 0 -39 43z" />
    <glyph glyph-name="bracketleft" unicode="[" horiz-adv-x="686" 
d="M168 -236v1620q0 36 12 48t43 12h375q34 0 45.5 -9t11.5 -38v-105q0 -24 -9.5 -33.5t-37.5 -9.5h-192v-1349h188q32 0 41.5 -8t9.5 -35v-105q0 -27 -9.5 -36t-41.5 -9h-381q-34 0 -44.5 11t-10.5 46z" />
    <glyph glyph-name="backslash" unicode="\" horiz-adv-x="688" 
d="M16 1395q-14 49 31 49h139q26 0 37.5 -8t18.5 -33l430 -1378q14 -50 -31 -50h-139q-26 0 -37.5 8t-18.5 33z" />
    <glyph glyph-name="bracketright" unicode="]" horiz-adv-x="684" 
d="M31 -141q0 25 10 34t39 9h188v1349h-186q-33 0 -42 8t-9 35v105q0 27 9 36t42 9h381q33 0 43 -11t10 -47v-1619q0 -37 -11 -48.5t-42 -11.5h-377q-35 0 -45 8.5t-10 38.5v105z" />
    <glyph glyph-name="asciicircum" unicode="^" horiz-adv-x="1071" 
d="M62.5 788q-2.5 14 15.5 41l385 553q14 20 26 27.5t31 7.5h29q19 0 31 -7.5t26 -27.5l385 -553q18 -27 15.5 -41t-23.5 -28l-113 -78q-18 -12 -32 -8.5t-29 26.5l-274 412l-275 -412q-15 -23 -29 -26.5t-32 8.5l-113 78q-21 14 -23.5 28z" />
    <glyph glyph-name="underscore" unicode="_" horiz-adv-x="1024" 
d="M0 -203q0 19 7 25t28 6h948q27 0 34 -6.5t7 -28.5v-41q0 -24 -6.5 -31.5t-28.5 -7.5h-948q-25 0 -33 6.5t-8 24.5v53z" />
    <glyph glyph-name="grave" unicode="`" horiz-adv-x="704" 
d="M131 1358l62 92q15 23 30.5 25t40.5 -17l281 -198q23 -15 24.5 -29t-14.5 -37l-35 -51q-15 -21 -28.5 -24t-36.5 9l-312 172q-37 19 -12 58z" />
    <glyph glyph-name="a" unicode="a" horiz-adv-x="1142" 
d="M66 479q0 129 36.5 233.5t98.5 170.5t141 101.5t166 35.5q81 0 152 -33t110 -86l4 55q3 37 43 37h144q43 0 43 -45v-723q0 -29 7.5 -42t28.5 -13h17q19 0 28 -7.5t9 -27.5v-96q0 -39 -41 -39h-99q-144 0 -168 121h-4q-47 -63 -129 -104.5t-168 -41.5q-105 0 -187 41
t-131.5 111.5t-75 160t-25.5 191.5zM322 496q0 -139 54.5 -228.5t162.5 -89.5q70 0 130.5 43t86.5 96v396q-31 45 -88 74.5t-115 29.5q-99 0 -165 -83.5t-66 -237.5z" />
    <glyph glyph-name="b" unicode="b" horiz-adv-x="1134" 
d="M129 51v1335q0 26 8.5 39.5t32.5 16.5l166 22h7q34 0 34 -37v-507q52 45 123 72.5t147 27.5q155 0 262 -96q79 -69 117.5 -181t38.5 -247q0 -107 -28.5 -201t-82 -165.5t-136.5 -113t-185 -41.5q-168 0 -279 117l-8 -67q-3 -25 -43 -25h-125q-26 0 -37.5 11.5t-11.5 39.5
zM377 281q88 -101 201 -101q64 0 110.5 26t72 71.5t37 99t11.5 117.5q0 66 -11 120t-35.5 100t-69 71.5t-105.5 25.5q-55 0 -111 -26t-100 -66v-438z" />
    <glyph glyph-name="c" unicode="c" horiz-adv-x="915" 
d="M61 487q0 241 136.5 387t371.5 146q149 0 275 -57q19 -8 22.5 -21t-2.5 -33l-26 -110q-9 -36 -47 -19q-98 45 -197 45q-131 0 -204 -86.5t-73 -238.5t69 -242t198 -90q103 0 215 45q36 13 45 -16l28 -101q7 -23 2.5 -36t-26.5 -23q-135 -62 -297 -62q-234 0 -362 136.5
t-128 375.5z" />
    <glyph glyph-name="d" unicode="d" horiz-adv-x="1140" 
d="M70 485q0 109 30 205t85.5 170t141.5 117t191 43q69 0 136 -26t110 -70v462q0 26 8.5 39.5t32.5 16.5l166 22h7q34 0 34 -37v-1376q0 -25 -12.5 -38t-32.5 -13h-133q-47 0 -50 41l-4 55q-44 -51 -122 -86t-156 -35q-108 0 -192 41t-135.5 112t-78 161.5t-26.5 195.5z
M328 500q0 -66 12.5 -122t38.5 -102.5t71 -73t105 -26.5q55 0 116 31.5t93 71.5v442q-32 43 -86 71.5t-111 28.5q-79 0 -134.5 -46t-80 -116.5t-24.5 -158.5z" />
    <glyph glyph-name="e" unicode="e" horiz-adv-x="1054" 
d="M70 500q0 231 140 375.5t368 144.5q182 0 299 -123q120 -125 120 -367v-30q0 -36 -14 -48t-53 -12h-600q12 -119 92 -192.5t201 -73.5q125 0 251 49q14 5 24 5q22 0 28 -23l28 -105q7 -20 1 -34.5t-29 -24.5q-71 -32 -165 -49t-179 -17q-240 0 -376 142t-136 383z
M334 602h420v23q-3 86 -52.5 145t-138.5 59q-95 0 -155.5 -65t-73.5 -162z" />
    <glyph glyph-name="f" unicode="f" horiz-adv-x="745" 
d="M37 874v78q0 41 39 41h114v56q0 81 15 165q53 277 346 277q123 0 217 -43q22 -10 26 -27.5t-3 -46.5l-17 -86q-4 -22 -15.5 -27.5t-31.5 1.5q-80 26 -139 26q-86 0 -118 -51t-32 -150v-94h228q41 0 41 -35v-96q0 -39 -41 -39h-228v-766q0 -29 -11.5 -43t-39.5 -14h-147
q-50 0 -50 53v770h-110q-28 0 -35.5 9.5t-7.5 41.5z" />
    <glyph glyph-name="g" unicode="g" horiz-adv-x="1142" 
d="M70 485q0 104 30 199.5t86 170.5t144 120t196 45q73 0 141.5 -29.5t110.5 -85.5l4 51q1 20 12 28.5t35 8.5h136q27 0 38 -11t11 -38v-876q0 -256 -117 -386.5t-369 -130.5q-157 0 -303 64q-24 10 -30 24t2 39l32 99q7 25 20.5 30t39.5 -6q127 -53 229 -53q75 0 125 18.5
t76 56.5t36.5 84.5t10.5 112.5v82q-46 -44 -122.5 -74t-143.5 -30q-190 0 -301 117q-129 132 -129 370zM328 500q0 -167 82 -246q55 -55 145 -55q58 0 118.5 29t92.5 69v424q-32 43 -87 71.5t-112 28.5q-89 0 -151 -59q-44 -43 -66 -114t-22 -148z" />
    <glyph glyph-name="h" unicode="h" horiz-adv-x="1153" 
d="M129 51v1335q0 26 8.5 39.5t32.5 16.5l166 22h7q34 0 34 -37v-518q63 53 151 82t172 29q166 0 245 -97t79 -270v-602q0 -27 -12 -39t-39 -12h-144q-28 0 -40.5 12t-12.5 39v559q0 92 -33.5 142.5t-119.5 50.5q-59 0 -128.5 -28t-117.5 -70v-654q0 -27 -12 -39t-39 -12
h-144q-28 0 -40.5 12t-12.5 39z" />
    <glyph glyph-name="i" unicode="i" horiz-adv-x="534" 
d="M129 1251q0 59 41 95t98 36q56 0 97 -35t41 -94q0 -57 -42 -93t-96 -36q-55 0 -97 34.5t-42 92.5zM145 51v895q0 47 54 47h143q26 0 38.5 -10t12.5 -37v-895q0 -27 -12 -39t-39 -12h-143q-28 0 -41 12t-13 39z" />
    <glyph glyph-name="j" unicode="j" horiz-adv-x="581" 
d="M-168 -381l21 115q5 29 32 26q75 -6 76 -6q61 0 117 26t82 75q28 58 28 157v936q0 45 50 45h151q47 0 47 -45v-901q0 -288 -135 -403q-107 -90 -299 -90q-74 0 -137 14q-34 9 -34 39q0 6 1 12zM178 1249q0 61 40 97t97 36q55 0 96.5 -36t41.5 -95q0 -58 -41.5 -93.5
t-96.5 -35.5t-96 34.5t-41 92.5z" />
    <glyph glyph-name="k" unicode="k" horiz-adv-x="991" 
d="M129 51v1335q0 26 8.5 39.5t32.5 16.5l166 22h7q34 0 34 -37v-831h4l268 369q19 28 56 28h180q23 0 28 -13t-8 -30l-293 -368l336 -527q15 -25 10.5 -40t-28.5 -15h-187q-55 0 -81 43l-263 430l-22 -20v-402q0 -27 -12 -39t-39 -12h-144q-28 0 -40.5 12t-12.5 39z" />
    <glyph glyph-name="l" unicode="l" horiz-adv-x="505" 
d="M129 49v1337q0 26 8.5 39.5t32.5 16.5l166 22h7q34 0 34 -37v-1376q0 -51 -45 -51h-156q-47 0 -47 49z" />
    <glyph glyph-name="m" unicode="m" horiz-adv-x="1740" 
d="M129 51v895q0 47 49 47h133q48 0 51 -39l3 -51q63 55 142 86t159 31q90 0 156.5 -36t103.5 -97q67 64 160.5 98.5t189.5 34.5q105 0 178 -43.5t109 -110.5q49 -95 49 -297v-518q0 -28 -11.5 -39.5t-37.5 -11.5h-144q-28 0 -40.5 12t-12.5 39v561q0 93 -33.5 144
t-120.5 51q-56 0 -118.5 -26t-112.5 -66q3 -12 5.5 -146.5t2.5 -175.5v-342q0 -28 -11.5 -39.5t-37.5 -11.5h-135q-28 0 -40.5 12t-12.5 39v561q0 94 -31 144.5t-117 50.5q-109 0 -227 -102v-654q0 -27 -12 -39t-39 -12h-144q-28 0 -40.5 12t-12.5 39z" />
    <glyph glyph-name="n" unicode="n" 
d="M129 49v893q0 51 51 51h133q23 0 35.5 -8.5t13.5 -30.5l3 -53q147 119 331 119q166 0 245 -96.5t79 -270.5v-600q0 -27 -11 -40t-38 -13h-148q-27 0 -38 13t-11 40v557q0 93 -34 143t-122 50q-59 0 -126 -28t-115 -70v-654q0 -51 -49 -51h-150q-49 0 -49 49z" />
    <glyph glyph-name="o" unicode="o" horiz-adv-x="1126" 
d="M70 500q0 149 57.5 265.5t172 185.5t269.5 69q241 0 364.5 -143t123.5 -379q0 -149 -57.5 -266.5t-172.5 -187t-270 -69.5q-122 0 -216.5 39.5t-153 111t-88 166t-29.5 208.5zM326 504q0 -67 11.5 -123.5t36.5 -105.5t72.5 -77t112.5 -28t113.5 27t75.5 74.5t40 104
t13 122.5q0 67 -11.5 122.5t-37.5 103t-73 74.5t-112 27q-66 0 -114 -26.5t-75 -73t-39.5 -101.5t-12.5 -120z" />
    <glyph glyph-name="p" unicode="p" horiz-adv-x="1140" 
d="M129 -389v1335q0 26 12 36.5t37 10.5h123q28 0 41 -8.5t14 -30.5l2 -53q45 52 125 85.5t162 33.5q182 0 297 -125q64 -70 96.5 -171t32.5 -212q0 -242 -133 -397q-124 -140 -315 -140q-71 0 -137.5 26t-110.5 71v-461q0 -30 -13 -41.5t-40 -11.5h-144q-49 0 -49 53z
M375 274q32 -43 87.5 -71.5t112.5 -28.5q102 0 164 76q74 91 74 250q0 155 -59 237q-60 84 -168 84q-55 0 -117 -30t-94 -70v-447z" />
    <glyph glyph-name="q" unicode="q" horiz-adv-x="1136" 
d="M70 498q0 124 38.5 231t112.5 178q119 113 293 113q72 0 146.5 -28.5t119.5 -80.5l4 50q2 17 12 24.5t35 7.5h127q27 0 38.5 -12t11.5 -37v-1333q0 -28 -10.5 -40.5t-36.5 -12.5h-150q-51 0 -51 47v475q-48 -47 -118.5 -76t-141.5 -29q-156 0 -260 84
q-85 70 -127.5 185.5t-42.5 253.5zM328 500q0 -164 65 -246q56 -70 154 -70q56 0 114.5 27.5t98.5 69.5v430q-37 45 -94.5 75.5t-112.5 30.5q-64 0 -110 -27.5t-70 -75t-34.5 -100t-10.5 -114.5z" />
    <glyph glyph-name="r" unicode="r" horiz-adv-x="706" 
d="M129 51v891q0 29 13 40t38 11h131q51 0 51 -39l3 -65q51 65 108.5 98t138.5 33q54 0 68 -14q11 -11 8 -35l-22 -146q-5 -34 -41 -28q-24 4 -52 4q-52 0 -105 -26.5t-91 -72.5v-651q0 -51 -49 -51h-150q-49 0 -49 51z" />
    <glyph glyph-name="s" unicode="s" horiz-adv-x="841" 
d="M57 94l37 113q11 35 49 20q148 -63 258 -63q69 0 110.5 29t41.5 79q0 41 -28.5 68t-94.5 53l-162 62q-94 35 -152.5 104t-58.5 168q0 96 56 164.5t138 98.5t177 30q159 0 297 -62q19 -8 22.5 -19.5t-2.5 -29.5l-34 -110q-11 -34 -49 -19q-127 49 -222 49q-61 0 -95 -28
t-34 -66q0 -35 22 -58t79 -46l184 -76q88 -37 141.5 -102.5t53.5 -159.5q0 -103 -56.5 -177t-144 -107.5t-195.5 -33.5q-153 0 -315 72q-34 15 -23 47z" />
    <glyph glyph-name="t" unicode="t" horiz-adv-x="778" 
d="M35 874v78q0 41 37 41h104v215q0 26 8.5 39.5t32.5 16.5l166 22h7q34 0 34 -37v-256h231q39 0 39 -35v-96q0 -39 -41 -39h-229v-469q0 -100 27 -139q29 -43 96 -43q54 0 131 25q40 12 47 -21l20 -102q1 -7 1 -13q0 -27 -29 -38q-112 -48 -230 -48q-171 0 -245 86
q-44 50 -55 113.5t-11 192.5v456h-96q-29 0 -37 9t-8 42z" />
    <glyph glyph-name="u" unicode="u" horiz-adv-x="1140" 
d="M129 342v604q0 47 53 47h144q26 0 38.5 -10t12.5 -37v-561q0 -94 32.5 -142t118.5 -48q58 0 124.5 28t113.5 70v653q0 47 51 47h146q26 0 38.5 -10t12.5 -37v-889q0 -32 -11 -44.5t-42 -12.5h-132q-46 0 -49 41l-2 51q-145 -117 -325 -117q-166 0 -245 97t-79 270z" />
    <glyph glyph-name="v" unicode="v" horiz-adv-x="991" 
d="M27 950q-4 11 -4 19q0 24 36 24h181q47 0 59 -41l156 -477q25 -75 51 -174h2q17 68 49 168l160 481q7 26 20.5 34.5t42.5 8.5h148q30 0 38.5 -12t-1.5 -37l-359 -905q-9 -23 -22 -31t-37 -8h-107q-48 0 -61 37z" />
    <glyph glyph-name="w" unicode="w" horiz-adv-x="1472" 
d="M27 950q-3 9 -3 15q0 28 42 28h167q49 0 58 -39l147 -647h2l191 645q11 41 55 41h115q47 0 55 -35l186 -655h2l154 645q9 45 59 45h156q34 0 34 -25q0 -8 -3 -18l-275 -901q-16 -49 -63 -49h-135q-53 0 -68 51l-170 584h-4l-168 -588q-14 -47 -65 -47h-138q-49 0 -63 49z
" />
    <glyph glyph-name="x" unicode="x" horiz-adv-x="1032" 
d="M24 15q-6 15 7 30l352 469l-301 430q-12 15 -6.5 32t26.5 17h209q44 0 64 -32l162 -259h2l168 256q23 35 59 35h178q22 0 27.5 -15t-6.5 -30l-312 -405l346 -494q13 -17 6.5 -33t-30.5 -16h-209q-30 0 -45.5 8.5t-26.5 28.5l-192 313h-2l-197 -309q-25 -41 -78 -41h-174
q-21 0 -27 15z" />
    <glyph glyph-name="y" unicode="y" horiz-adv-x="1052" 
d="M29 -383l14 107q3 20 11.5 28t25.5 8q9 0 39 -3t43 -3q92 0 140.5 33.5t80.5 108.5l39 92l-373 960q-8 19 -1 32t28 13h192q46 0 58 -41l225 -671l215 665q8 25 21.5 36t39.5 11h166q34 0 34 -25q0 -10 -5 -24l-404 -1061q-69 -184 -168.5 -256.5t-283.5 -72.5
q-73 0 -109 10q-23 7 -27 18t-1 35z" />
    <glyph glyph-name="z" unicode="z" horiz-adv-x="880" 
d="M49 49v51q0 38 21 70l442 651v2h-379q-29 0 -38 10.5t-9 43.5v73q0 43 39 43h647q47 0 47 -43v-57q0 -39 -20 -68l-451 -651v-4h443q40 0 40 -35v-96q0 -39 -38 -39h-695q-49 0 -49 49z" />
    <glyph glyph-name="braceleft" unicode="{" horiz-adv-x="733" 
d="M53 539v86q0 19 6.5 25t32.5 9q126 14 129 211l6 291q3 141 85.5 219t213.5 78h150q25 0 31.5 -9t3.5 -28l-19 -86q-4 -19 -13 -24.5t-32 -5.5h-45q-70 0 -96.5 -33.5t-28.5 -120.5l-6 -264q-2 -78 -23 -138t-54 -94t-67.5 -51.5t-70.5 -19.5v-4q28 -2 55.5 -12.5t56 -34
t50.5 -57t36.5 -85.5t16.5 -115l6 -262q2 -87 28.5 -120t96.5 -33h45q23 0 31.5 -6t13.5 -25l19 -86q3 -19 -3.5 -28t-31.5 -9h-150q-131 0 -213.5 78t-85.5 219l-6 289q-3 197 -129 211q-26 3 -32.5 9.5t-6.5 25.5z" />
    <glyph glyph-name="bar" unicode="|" horiz-adv-x="471" 
d="M123 2v1417q0 45 41 45h135q49 0 49 -43v-1417q0 -30 -8.5 -39.5t-38.5 -9.5h-121q-29 0 -43 10t-14 37z" />
    <glyph glyph-name="braceright" unicode="}" horiz-adv-x="733" 
d="M23 -256l18 86q5 19 13.5 25t31.5 6h45q70 0 96.5 33t28.5 120l6 262q2 63 16.5 115t36.5 85.5t50.5 57t56 34t55.5 12.5v4q-36 2 -70.5 19.5t-67.5 51.5t-54 94t-23 138l-6 264q-2 87 -28.5 120.5t-96.5 33.5h-45q-23 0 -32 5.5t-13 24.5l-18 86q-3 19 3.5 28t30.5 9
h150q131 0 213.5 -78t85.5 -219l6 -291q3 -197 129 -211q26 -3 32.5 -9t6.5 -25v-86q0 -19 -6.5 -25.5t-32.5 -9.5q-126 -14 -129 -211l-6 -289q-3 -141 -85.5 -219t-213.5 -78h-150q-24 0 -30.5 9t-3.5 28z" />
    <glyph glyph-name="asciitilde" unicode="~" horiz-adv-x="1071" 
d="M63.5 599.5q2.5 22.5 32.5 43.5q89 62 157.5 94.5t129.5 32.5q50 0 110.5 -28t117 -55.5t96.5 -27.5q76 0 174 68q41 27 69 -18l37 -58q21 -30 18.5 -52.5t-32.5 -43.5q-172 -127 -287 -127q-50 0 -110.5 28t-117 55.5t-96.5 27.5q-71 0 -174 -68q-43 -24 -69 18l-37 58
q-21 30 -18.5 52.5z" />
    <glyph glyph-name="uni00A0" unicode="&#xa0;" horiz-adv-x="495" 
 />
    <glyph glyph-name="exclamdown" unicode="&#xa1;" horiz-adv-x="530" 
d="M127 891q0 59 42.5 94t96.5 35q53 0 95 -36.5t42 -94.5q0 -60 -40.5 -95.5t-96.5 -35.5t-97.5 36t-41.5 97zM152 -383l22 1022q0 23 8.5 32t32.5 9h111q21 0 30 -9t9 -30l24 -1024q0 -22 -8 -30.5t-29 -8.5h-164q-21 0 -28.5 8.5t-7.5 30.5z" />
    <glyph glyph-name="cent" unicode="&#xa2;" 
d="M168 487q0 222 120 364.5t326 164.5v153q0 24 6 30.5t29 6.5h53q24 0 30.5 -6.5t6.5 -30.5v-151q119 -6 222 -55q19 -8 23.5 -21t-1.5 -33l-27 -108q-8 -40 -51 -21q-84 36 -166 41v-651q82 5 176 43q18 7 29 3.5t17 -21.5l28 -93q10 -27 5.5 -40t-29.5 -25
q-111 -51 -226 -57v-144q0 -24 -8 -32.5t-35 -8.5h-43q-25 0 -32 9.5t-7 35.5v137q-211 17 -328.5 152t-117.5 358zM424 500q0 -130 48.5 -213.5t141.5 -108.5v635q-88 -24 -139 -104t-51 -209z" />
    <glyph glyph-name="sterling" unicode="&#xa3;" 
d="M90 51v86q0 47 39 60q76 30 108.5 89.5t32.5 153.5v191h-98q-25 0 -33 7t-8 30v110q0 25 8 31t35 6h96v162q0 215 111 338q116 129 338 129q147 0 278 -55q25 -11 31.5 -24t-0.5 -36l-37 -110q-6 -20 -16.5 -24.5t-32.5 3.5q-100 39 -194 39q-118 0 -175 -66
q-26 -33 -38.5 -77.5t-12.5 -122.5v-156h295q26 0 34.5 -7t8.5 -28v-114q0 -24 -8 -29.5t-35 -5.5h-297v-174q0 -173 -98 -240v-4h582q51 0 51 -47v-117q0 -49 -49 -49h-865q-51 0 -51 51z" />
    <glyph glyph-name="currency" unicode="&#xa4;" 
d="M176 471l96 96q-28 72 -28 142q0 69 28 141l-96 96q-27 27 4 58l62 61q19 19 31.5 20t27.5 -14l90 -90q76 49 182 49q107 0 183 -49l90 90q15 15 27.5 14t31.5 -20l62 -61q31 -31 4 -58l-97 -96q29 -74 29 -141q0 -68 -29 -142l97 -96q27 -27 -4 -57l-62 -62
q-19 -19 -31.5 -20t-27.5 14l-90 90q-76 -49 -183 -49q-106 0 -182 49l-90 -90q-15 -15 -27.5 -14t-31.5 20l-62 62q-30 30 -4 57zM424 709q0 -67 39.5 -110.5t109.5 -43.5t110 43.5t40 110.5t-40 110t-110 43t-109.5 -43t-39.5 -110z" />
    <glyph glyph-name="yen" unicode="&#xa5;" 
d="M40.5 1402.5q8.5 14.5 31.5 14.5h190q33 0 48.5 -8t25.5 -31l268 -536h2l262 534q12 25 26 33t44 8h154q54 0 28 -51l-368 -711h157q25 0 33 -8t8 -29v-57q0 -22 -8.5 -28.5t-34.5 -6.5h-186v-88h192q26 0 32.5 -6.5t6.5 -30.5v-45q0 -29 -7 -36t-34 -7h-190v-266
q0 -47 -43 -47h-174q-45 0 -45 51v262h-193q-24 0 -31.5 9.5t-7.5 35.5v41q0 25 7.5 32t33.5 7h97h94v88h-197q-23 0 -30 7t-7 30v53q0 24 8 31.5t33 7.5h156l-379 713q-11 20 -2.5 34.5z" />
    <glyph glyph-name="brokenbar" unicode="&#xa6;" horiz-adv-x="471" 
d="M123 20v474q0 49 51 49h125q27 0 38 -10t11 -37v-476q0 -28 -11.5 -39.5t-37.5 -11.5h-123q-28 0 -40.5 12t-12.5 39zM123 932v471q0 49 51 49h125q27 0 38 -10t11 -37v-473q0 -28 -11.5 -40.5t-37.5 -12.5h-123q-53 0 -53 53z" />
    <glyph glyph-name="section" unicode="&#xa7;" horiz-adv-x="948" 
d="M109 74q0 10 4 22l32 103q9 30 27 30q8 0 23 -6q148 -59 260 -59q67 0 109 29t42 79q0 41 -28.5 68t-94.5 53l-161 64q-95 37 -153 105t-58 167q0 135 110 213q-102 85 -102 211q0 72 32 129.5t85 92t118 52t135 17.5q162 0 295 -58q25 -12 25 -24q0 -7 -4 -23l-35 -114
q-6 -23 -25 -23q-8 0 -28 8q-113 45 -213 45q-61 0 -97 -28t-36 -66q0 -34 22 -60t78 -48l184 -74q88 -35 141.5 -101t53.5 -161q0 -141 -98 -223q90 -77 90 -201q0 -102 -55.5 -176t-142.5 -108t-195 -34q-157 0 -316 68q-24 11 -24 31zM350 750q0 -38 27 -66t86 -53
l98 -41q29 16 47.5 43t18.5 57q0 77 -135 127l-72 27q-70 -28 -70 -94z" />
    <glyph glyph-name="dieresis" unicode="&#xa8;" horiz-adv-x="704" 
d="M39 1294q0 56 37.5 88.5t89.5 32.5q49 0 87 -32.5t38 -86.5q0 -53 -39 -85.5t-86 -32.5q-49 0 -88 31.5t-39 84.5zM414 1294q0 56 37.5 88.5t89.5 32.5q49 0 87 -32.5t38 -86.5q0 -53 -39 -85.5t-86 -32.5q-49 0 -88 31.5t-39 84.5z" />
    <glyph glyph-name="copyright" unicode="&#xa9;" horiz-adv-x="1701" 
d="M109 713q0 201 98 369t268.5 265t376.5 97q202 0 373 -97t270.5 -265.5t99.5 -368.5q0 -150 -59 -287t-158.5 -235.5t-237 -157t-288.5 -58.5q-208 0 -379 99t-267.5 268t-96.5 371zM293 711q0 -156 73 -286.5t201.5 -206t284.5 -75.5t284 75.5t200.5 205.5t72.5 287
q0 117 -43 221.5t-116.5 180t-177 119.5t-220.5 44t-221 -44t-178 -119.5t-117 -180t-43 -221.5zM543 709q0 162 91.5 268t244.5 106q102 0 194 -45q21 -10 21 -20q0 -5 -4 -17l-23 -63q-9 -27 -35 -14q-70 37 -147 37q-88 0 -140 -68q-51 -66 -51 -180q0 -117 52 -185.5
t143 -68.5q67 0 145 33q24 11 35 -11l23 -61q4 -12 4 -17q0 -15 -21 -24q-96 -41 -207 -41q-160 0 -242.5 102t-82.5 269z" />
    <glyph glyph-name="ordfeminine" unicode="&#xaa;" horiz-adv-x="626" 
d="M41 854q0 99 82.5 140.5t249.5 41.5v8q0 80 -84 80q-63 0 -139 -39q-31 -16 -46 13l-28 57q-13 29 8 41q109 64 229 64q128 0 189 -58q55 -52 55 -168v-301q0 -21 -8 -29t-31 -8h-80q-39 0 -47 25l-8 24q-69 -57 -166 -57q-81 0 -128.5 48.5t-47.5 117.5zM227 868
q0 -23 16.5 -36t45.5 -13q45 0 84 31v90q-70 2 -108 -17t-38 -55z" />
    <glyph glyph-name="guillemotleft" unicode="&#xab;" horiz-adv-x="942" 
d="M74 471q0 14 14 35l227 289q16 19 30 21.5t30 -7.5l74 -43q19 -11 22.5 -20.5t-6.5 -26.5l-166 -248l166 -248q10 -17 6.5 -26.5t-22.5 -20.5l-74 -43q-16 -10 -30 -7.5t-30 21.5l-227 289q-14 21 -14 35zM449 471q0 14 14 35l227 289q16 19 30 21.5t30 -7.5l73 -43
q19 -11 23 -20t-6 -27l-166 -248l166 -248q10 -18 6 -27t-23 -20l-73 -43q-16 -10 -30 -7.5t-30 21.5l-227 289q-14 21 -14 35z" />
    <glyph glyph-name="logicalnot" unicode="&#xac;" horiz-adv-x="1071" 
d="M78 688v115q0 27 10 38t37 11h815q30 0 41.5 -11.5t11.5 -39.5v-508q0 -28 -12.5 -38.5t-38.5 -10.5h-115q-27 0 -38 10t-11 37v346h-651q-28 0 -38.5 12.5t-10.5 38.5z" />
    <glyph glyph-name="uni00AD" unicode="&#xad;" horiz-adv-x="587" 
d="M72 475v133q0 27 10 38t37 11h344q30 0 41.5 -11.5t11.5 -39.5v-129q0 -30 -11 -42.5t-40 -12.5h-344q-28 0 -38.5 13t-10.5 40z" />
    <glyph glyph-name="registered" unicode="&#xae;" horiz-adv-x="1701" 
d="M109 713q0 201 98 369t268.5 265t376.5 97q202 0 373 -97t270.5 -265.5t99.5 -368.5q0 -150 -59 -287t-158.5 -235.5t-237 -157t-288.5 -58.5q-208 0 -379 99t-267.5 268t-96.5 371zM293 711q0 -156 73 -286.5t201.5 -206t284.5 -75.5t284 75.5t200.5 205.5t72.5 287
q0 117 -43 221.5t-116.5 180t-177 119.5t-220.5 44t-221 -44t-178 -119.5t-117 -180t-43 -221.5zM629 379v657q0 35 28 35h91q119 0 174.5 -10t109.5 -47q74 -57 74 -168q0 -71 -34 -125t-95 -82l166 -254q11 -15 6.5 -25t-21.5 -10h-98q-27 0 -41 23l-145 237h-72v-231
q0 -29 -29 -29h-86q-28 0 -28 29zM772 721h41q148 0 148 121q0 116 -142 116h-47v-237z" />
    <glyph glyph-name="macron" unicode="&#xaf;" horiz-adv-x="704" 
d="M63 1249v78q0 23 8.5 31t32.5 8h494q24 0 32.5 -8t8.5 -31v-78q0 -23 -8.5 -31t-32.5 -8h-494q-24 0 -32.5 8t-8.5 31z" />
    <glyph glyph-name="degree" unicode="&#xb0;" horiz-adv-x="577" 
d="M92 1253q0 81 55.5 136t141.5 55t141 -55t55 -136t-55 -135.5t-141 -54.5q-87 0 -142 54.5t-55 135.5zM217 1253q0 -31 20.5 -51t51.5 -20t51 20t20 51t-20 51.5t-51 20.5t-51.5 -20.5t-20.5 -51.5z" />
    <glyph glyph-name="plusminus" unicode="&#xb1;" horiz-adv-x="1071" 
d="M78 51v115q0 27 10 38t37 11h815q30 0 41.5 -11.5t11.5 -39.5v-109q0 -30 -11 -42.5t-40 -12.5h-815q-28 0 -38.5 12.5t-10.5 38.5zM78 770v115q0 27 10 38t37 11h303v297q0 30 11.5 41.5t39.5 11.5h109q30 0 42.5 -11t12.5 -40v-299h297q30 0 41.5 -11.5t11.5 -39.5
v-109q0 -30 -11 -42.5t-40 -12.5h-299v-301q0 -28 -12.5 -38.5t-38.5 -10.5h-115q-27 0 -38 10t-11 37v303h-301q-28 0 -38.5 12.5t-10.5 38.5z" />
    <glyph glyph-name="uni00B2" unicode="&#xb2;" horiz-adv-x="696" 
d="M88 950v33q0 30 8 44.5t37 43.5q161 152 214.5 218t53.5 126q0 35 -23.5 54.5t-66.5 19.5q-61 0 -141 -41q-32 -16 -45 14l-29 66q-15 37 10 51q46 27 111 45t127 18q113 0 184.5 -56t71.5 -152q0 -82 -57 -165t-201 -200h219q22 0 29.5 -7.5t7.5 -27.5v-88
q0 -18 -7 -25.5t-28 -7.5h-440q-19 0 -27 8t-8 29z" />
    <glyph glyph-name="uni00B3" unicode="&#xb3;" horiz-adv-x="696" 
d="M78 1006l26 71q14 37 50 23q86 -39 153 -39q52 0 82.5 21.5t30.5 62.5q0 80 -148 80h-30q-18 0 -23.5 6t-5.5 22v74q0 16 6 22.5t23 6.5h41q52 0 80 15t28 54q0 31 -24.5 47.5t-63.5 16.5q-54 0 -135 -31q-31 -12 -43 15l-27 67q-7 18 -3.5 29.5t22.5 21.5q96 51 219 51
q110 0 180 -50.5t70 -139.5q0 -106 -101 -152q133 -44 133 -167q0 -99 -79.5 -163.5t-208.5 -64.5q-139 0 -234 53q-29 15 -18 48z" />
    <glyph glyph-name="acute" unicode="&#xb4;" horiz-adv-x="704" 
d="M118.5 1231q1.5 14 24.5 29l281 198q25 19 41 17t31 -25l61 -92q25 -39 -12 -58l-312 -172q-23 -12 -36.5 -9t-28.5 24l-35 51q-16 23 -14.5 37z" />
    <glyph glyph-name="mu" unicode="&#xb5;" horiz-adv-x="1204" 
d="M129 -307v1249q0 27 12 39t39 12h144q28 0 40.5 -12t12.5 -39v-569q0 -92 33 -142.5t120 -50.5q60 0 124 25.5t112 66.5v670q0 27 12 39t39 12h144q28 0 40.5 -12t12.5 -39v-649q0 -98 47 -98q21 0 49 12q17 8 32 4t19 -21l31 -88q14 -36 -16 -57q-35 -28 -95 -44.5
t-114 -16.5q-59 0 -106 25t-66 67q-112 -101 -258 -101q-100 0 -160 48v-330q0 -27 -12 -39t-39 -12h-144q-28 0 -40.5 12t-12.5 39z" />
    <glyph glyph-name="paragraph" unicode="&#xb6;" horiz-adv-x="1095" 
d="M70 1063q0 149 107.5 251.5t258.5 102.5h465q29 0 40 -11t11 -40v-1612q0 -43 -37 -43h-75q-21 0 -30 10.5t-9 34.5v1456h-164v-1448q0 -53 -47 -53h-152q-26 0 -36.5 10.5t-10.5 40.5v951q-137 19 -229 117t-92 233z" />
    <glyph glyph-name="periodcentered" unicode="&#xb7;" horiz-adv-x="471" 
d="M90 551q0 63 43 101t103 38q59 0 102 -37.5t43 -99.5q0 -60 -44.5 -98.5t-100.5 -38.5q-58 0 -102 37t-44 98z" />
    <glyph glyph-name="cedilla" unicode="&#xb8;" horiz-adv-x="704" 
d="M195 -375l14 66q3 12 10.5 15t32.5 -3q59 -18 102 -18q36 0 60 14t24 39q0 28 -20 40.5t-80 12.5h-29q-49 0 -61.5 13.5t-9.5 50.5l16 145h131l-6 -90h16q101 0 156 -44.5t55 -129.5q0 -77 -65 -127.5t-170 -50.5q-80 0 -150 28q-18 7 -23.5 15.5t-2.5 23.5z" />
    <glyph glyph-name="uni00B9" unicode="&#xb9;" horiz-adv-x="696" 
d="M86 1448q-20 33 14 51l219 117q37 18 76 18h70q21 0 29 -7t8 -25v-650q0 -21 -9 -30t-36 -9h-101q-27 0 -36 9t-9 30v480l-127 -66q-22 -11 -34.5 -8.5t-22.5 20.5z" />
    <glyph glyph-name="ordmasculine" unicode="&#xba;" horiz-adv-x="651" 
d="M35 973q0 131 75 209t216 78t215.5 -78t74.5 -209t-74.5 -208t-215.5 -77t-216 77t-75 208zM225 973q0 -150 101 -150q100 0 100 150q0 151 -100 151q-101 0 -101 -151z" />
    <glyph glyph-name="guillemotright" unicode="&#xbb;" horiz-adv-x="942" 
d="M96 196q-4 9 6 27l166 248l-166 248q-10 18 -6 27t23 20l74 43q16 10 29.5 7.5t29.5 -21.5l227 -289q15 -23 15 -35q0 -13 -15 -35l-227 -289q-16 -19 -29.5 -21.5t-29.5 7.5l-74 43q-19 11 -23 20zM471 196q-4 9 6 27l166 248l-166 248q-10 18 -6 27t23 20l73 43
q16 10 30 7.5t30 -21.5l227 -289q14 -21 14 -35t-14 -35l-227 -289q-16 -19 -30 -21.5t-30 7.5l-73 43q-19 11 -23 20z" />
    <glyph glyph-name="onequarter" unicode="&#xbc;" horiz-adv-x="1728" 
d="M111 1231q-20 33 14 51l219 117q37 18 76 18h69q20 0 28.5 -7t8.5 -26v-649q0 -21 -9 -30t-36 -9h-100q-27 0 -36 9t-9 30v479l-127 -65q-22 -11 -34.5 -8.5t-22.5 20.5zM304 -12q-10 13 3 35l858 1382q13 23 27.5 31t42.5 8h125q28 0 38 -12.5t-3 -34.5l-858 -1383
q-13 -23 -27.5 -31t-42.5 -8h-125q-28 0 -38 13zM1012 168v39q0 54 28 117l160 366q8 18 17.5 24.5t31.5 6.5h115q44 0 29 -41l-166 -395h162v123q0 20 8 27t33 7h106q25 0 33 -7t8 -27v-373q0 -20 -8 -27.5t-33 -7.5h-106q-25 0 -33 7.5t-8 27.5v94h-340q-20 0 -28.5 8.5
t-8.5 30.5z" />
    <glyph glyph-name="onehalf" unicode="&#xbd;" horiz-adv-x="1728" 
d="M111 1231q-20 33 14 51l219 117q37 18 76 18h69q20 0 28.5 -7t8.5 -26v-649q0 -21 -9 -30t-36 -9h-100q-27 0 -36 9t-9 30v479l-127 -65q-22 -11 -34.5 -8.5t-22.5 20.5zM304 -12q-10 13 3 35l858 1382q13 23 27.5 31t42.5 8h125q28 0 38 -12.5t-3 -34.5l-858 -1383
q-13 -23 -27.5 -31t-42.5 -8h-125q-28 0 -38 13zM1065 37v33q0 30 8 44.5t37 43.5q161 152 214.5 218t53.5 126q0 35 -23.5 54t-66.5 19q-63 0 -141 -40q-32 -16 -45 14l-29 65q-15 38 10 52q46 27 111 45t127 18q113 0 184.5 -56.5t71.5 -152.5q0 -82 -57 -164.5
t-201 -199.5h219q22 0 29.5 -7.5t7.5 -27.5v-88q0 -18 -7 -25.5t-28 -7.5h-440q-19 0 -27 8t-8 29z" />
    <glyph glyph-name="threequarters" unicode="&#xbe;" horiz-adv-x="1728" 
d="M108.5 760.5q-3.5 10.5 2.5 27.5l26 72q14 37 49 23q86 -39 154 -39q52 0 82.5 21.5t30.5 62.5q0 80 -148 80h-31q-18 0 -23 6t-5 22v74q0 16 5.5 22.5t22.5 6.5h41q109 0 109 69q0 31 -24.5 47.5t-63.5 16.5q-54 0 -135 -31q-19 -7 -28 -3.5t-15 17.5l-27 68
q-7 18 -3.5 29.5t22.5 21.5q96 51 219 51q109 0 179 -50t70 -140q0 -106 -100 -152q133 -44 133 -168q0 -99 -80 -163t-209 -64q-138 0 -233 53q-17 9 -20.5 19.5zM341 -12q-10 13 3 35l858 1382q13 23 27.5 31t42.5 8h125q28 0 38 -12.5t-3 -34.5l-859 -1383
q-14 -23 -27.5 -31t-41.5 -8h-125q-28 0 -38 13zM1049 168v39q0 54 28 117l160 366q8 18 17.5 24.5t31.5 6.5h115q44 0 29 -41l-166 -395h161v123q0 20 8 27t33 7h107q25 0 33 -7t8 -27v-373q0 -20 -8 -27.5t-33 -7.5h-107q-25 0 -33 7.5t-8 27.5v94h-340q-20 0 -28 8.5
t-8 30.5z" />
    <glyph glyph-name="questiondown" unicode="&#xbf;" horiz-adv-x="901" 
d="M74 -102q0 150 135 292l149 158q43 45 64 85.5t24 107.5q0 13 -1 42.5t-1 34.5q0 31 31 31h131q18 0 26.5 -6.5t12.5 -24.5q14 -65 14 -120q0 -133 -104 -240l-145 -149q-101 -106 -101 -187q0 -91 57 -132.5t142 -41.5q46 0 106 16.5t107 42.5q32 17 43 -12l41 -110
q11 -34 -14 -47q-156 -87 -332 -87q-160 0 -272.5 95t-112.5 252zM399 889q0 58 42.5 94.5t95.5 36.5q54 0 96.5 -35t42.5 -94q0 -61 -41.5 -97t-97.5 -36t-97 35.5t-41 95.5z" />
    <glyph glyph-name="Agrave" unicode="&#xc0;" horiz-adv-x="1316" 
d="M17.5 14.5q-7.5 14.5 0.5 36.5l500 1325q16 41 55 41h164q45 0 58 -37l503 -1327q8 -22 0 -37.5t-30 -15.5h-187q-31 0 -45 11t-24 38l-107 301h-518l-106 -307q-13 -43 -56 -43h-176q-24 0 -31.5 14.5zM436 1767l62 93q15 23 30.5 25t40.5 -17l281 -199
q23 -15 24.5 -28.5t-14.5 -36.5l-35 -52q-15 -21 -28.5 -23.5t-36.5 9.5l-311 172q-37 19 -13 57zM457 549h379l-146 432q-17 55 -41 133h-4q-8 -28 -43 -135z" />
    <glyph glyph-name="Aacute" unicode="&#xc1;" horiz-adv-x="1316" 
d="M17.5 14.5q-7.5 14.5 0.5 36.5l500 1325q16 41 55 41h164q45 0 58 -37l503 -1327q8 -22 0 -37.5t-30 -15.5h-187q-31 0 -45 11t-24 38l-107 301h-518l-106 -307q-13 -43 -56 -43h-176q-24 0 -31.5 14.5zM424 1640.5q2 13.5 25 28.5l280 199q25 19 41 17t31 -25l61 -93
q24 -38 -12 -57l-311 -172q-23 -13 -37 -10t-29 24l-35 52q-16 23 -14 36.5zM457 549h379l-146 432q-17 55 -41 133h-4q-8 -28 -43 -135z" />
    <glyph glyph-name="Acircumflex" unicode="&#xc2;" horiz-adv-x="1316" 
d="M17.5 14.5q-7.5 14.5 0.5 36.5l500 1325q16 41 55 41h164q45 0 58 -37l503 -1327q8 -22 0 -37.5t-30 -15.5h-187q-31 0 -45 11t-24 38l-107 301h-518l-106 -307q-13 -43 -56 -43h-176q-24 0 -31.5 14.5zM371 1591q-25 25 4 54l205 186q25 22 59 22h33q34 0 59 -22
l205 -186q29 -29 4 -54l-35 -37q-16 -16 -29.5 -16t-41.5 18l-179 117l-178 -117q-28 -18 -41.5 -18t-29.5 16zM457 549h379l-146 432q-17 55 -41 133h-4q-8 -28 -43 -135z" />
    <glyph glyph-name="Atilde" unicode="&#xc3;" horiz-adv-x="1316" 
d="M17.5 14.5q-7.5 14.5 0.5 36.5l500 1325q16 41 55 41h164q45 0 58 -37l503 -1327q8 -22 0 -37.5t-30 -15.5h-187q-31 0 -45 11t-24 38l-107 301h-518l-106 -307q-13 -43 -56 -43h-176q-24 0 -31.5 14.5zM324 1677q-18 37 20 60q100 67 186 67q54 0 134 -35.5t110 -35.5
q53 0 123 43q23 14 35.5 12t21.5 -21l33 -65q18 -37 -20 -60q-100 -67 -187 -67q-54 0 -133.5 36t-109.5 36q-53 0 -123 -43q-23 -14 -36 -12.5t-22 20.5zM457 549h379l-146 432q-17 55 -41 133h-4q-8 -28 -43 -135z" />
    <glyph glyph-name="Adieresis" unicode="&#xc4;" horiz-adv-x="1316" 
d="M17.5 14.5q-7.5 14.5 0.5 36.5l500 1325q16 41 55 41h164q45 0 58 -37l503 -1327q8 -22 0 -37.5t-30 -15.5h-187q-31 0 -45 11t-24 38l-107 301h-518l-106 -307q-13 -43 -56 -43h-176q-24 0 -31.5 14.5zM344 1704q0 56 37.5 88.5t89.5 32.5q49 0 87 -32.5t38 -86.5
q0 -53 -39 -86t-86 -33q-49 0 -88 32t-39 85zM457 549h379l-146 432q-17 55 -41 133h-4q-8 -28 -43 -135zM719 1704q0 56 37.5 88.5t89.5 32.5q49 0 87 -32.5t38 -86.5q0 -53 -39 -86t-86 -33q-49 0 -88 32t-39 85z" />
    <glyph glyph-name="Aring" unicode="&#xc5;" horiz-adv-x="1316" 
d="M17.5 14.5q-7.5 14.5 0.5 36.5l500 1325q16 41 55 41h164q45 0 58 -37l503 -1327q8 -22 0 -37.5t-30 -15.5h-187q-31 0 -45 11t-24 38l-107 301h-518l-106 -307q-13 -43 -56 -43h-176q-24 0 -31.5 14.5zM457 549h379l-146 432q-17 55 -41 133h-4q-8 -28 -43 -135z
M492 1690q0 70 47.5 116.5t119.5 46.5t120 -46.5t48 -116.5t-48 -117t-120 -47t-119.5 46.5t-47.5 117.5zM606 1690q0 -24 14.5 -40t38.5 -16t39 16t15 40t-15 39.5t-39 15.5t-38.5 -15.5t-14.5 -39.5z" />
    <glyph glyph-name="AE" unicode="&#xc6;" horiz-adv-x="1892" 
d="M29.5 14.5q-7.5 14.5 3.5 34.5l817 1323q14 23 28 34t37 11h844q24 0 36 -10.5t9 -32.5l-16 -127q-3 -26 -18 -34.5t-50 -8.5h-516v-370h473q54 0 54 -46v-116q0 -49 -52 -49h-475v-410h549q51 0 51 -47v-117q0 -49 -49 -49h-749q-64 0 -64 55v295h-457l-190 -307
q-14 -24 -27 -33.5t-35 -9.5h-178q-18 0 -25.5 14.5zM596 549h346v575z" />
    <glyph glyph-name="Ccedilla" unicode="&#xc7;" horiz-adv-x="1220" 
d="M90 702q0 157 46.5 293t130.5 235.5t210 156.5t277 57q208 0 385 -86q25 -12 30 -24t-4 -38l-47 -129q-12 -38 -51 -18q-142 74 -297 74q-83 0 -150.5 -29.5t-112 -78.5t-75 -115.5t-44 -138t-13.5 -148.5q0 -238 106 -377t293 -139q150 0 295 65q20 10 33.5 7t21.5 -25
l45 -121q17 -45 -28 -64q-191 -78 -383 -84l-4 -65h16q101 0 156 -44.5t55 -129.5q0 -77 -65.5 -127.5t-170.5 -50.5q-79 0 -149 28q-19 7 -24.5 15.5t-2.5 23.5l15 66q3 12 10.5 15t32.5 -3q59 -18 102 -18q36 0 60 14t24 39q0 28 -20 40.5t-80 12.5h-29q-50 0 -62.5 13.5
t-9.5 50.5l15 129q-262 33 -399.5 226.5t-137.5 491.5z" />
    <glyph glyph-name="Egrave" unicode="&#xc8;" horiz-adv-x="1101" 
d="M150 55v1311q0 51 47 51h772q29 0 37.5 -11.5t5.5 -35.5l-15 -123q-3 -26 -18.5 -34.5t-50.5 -8.5h-514v-370h475q28 0 38.5 -11.5t10.5 -34.5v-120q0 -23 -10.5 -34t-38.5 -11h-475v-410h549q51 0 51 -47v-117q0 -49 -49 -49h-760q-32 0 -43.5 11t-11.5 44zM391 1767
l62 93q15 23 30.5 25t40.5 -17l281 -199q23 -15 24.5 -28.5t-14.5 -36.5l-35 -52q-15 -21 -28.5 -23.5t-36.5 9.5l-312 172q-36 19 -12 57z" />
    <glyph glyph-name="Eacute" unicode="&#xc9;" horiz-adv-x="1101" 
d="M150 55v1311q0 51 47 51h772q29 0 37.5 -11.5t5.5 -35.5l-15 -123q-3 -26 -18.5 -34.5t-50.5 -8.5h-514v-370h475q28 0 38.5 -11.5t10.5 -34.5v-120q0 -23 -10.5 -34t-38.5 -11h-475v-410h549q51 0 51 -47v-117q0 -49 -49 -49h-760q-32 0 -43.5 11t-11.5 44z
M378.5 1640.5q1.5 13.5 24.5 28.5l281 199q25 19 41 17t31 -25l61 -93q24 -38 -12 -57l-311 -172q-23 -13 -37 -10t-29 24l-35 52q-16 23 -14.5 36.5z" />
    <glyph glyph-name="Ecircumflex" unicode="&#xca;" horiz-adv-x="1101" 
d="M150 55v1311q0 51 47 51h772q29 0 37.5 -11.5t5.5 -35.5l-15 -123q-3 -26 -18.5 -34.5t-50.5 -8.5h-514v-370h475q28 0 38.5 -11.5t10.5 -34.5v-120q0 -23 -10.5 -34t-38.5 -11h-475v-410h549q51 0 51 -47v-117q0 -49 -49 -49h-760q-32 0 -43.5 11t-11.5 44zM305 1591
q-25 25 4 54l205 186q25 22 59 22h33q35 0 60 -22l204 -186q29 -29 4 -54l-34 -37q-16 -16 -30 -16t-42 18l-178 117l-178 -117q-28 -18 -42 -18t-30 16z" />
    <glyph glyph-name="Edieresis" unicode="&#xcb;" horiz-adv-x="1101" 
d="M150 55v1311q0 51 47 51h772q29 0 37.5 -11.5t5.5 -35.5l-15 -123q-3 -26 -18.5 -34.5t-50.5 -8.5h-514v-370h475q28 0 38.5 -11.5t10.5 -34.5v-120q0 -23 -10.5 -34t-38.5 -11h-475v-410h549q51 0 51 -47v-117q0 -49 -49 -49h-760q-32 0 -43.5 11t-11.5 44zM279 1704
q0 56 37.5 88.5t89.5 32.5q49 0 86.5 -32.5t37.5 -86.5t-38.5 -86.5t-85.5 -32.5q-49 0 -88 32t-39 85zM653 1704q0 56 37.5 88.5t89.5 32.5q49 0 87 -32.5t38 -86.5q0 -53 -39 -86t-86 -33q-49 0 -88 32t-39 85z" />
    <glyph glyph-name="Igrave" unicode="&#xcc;" horiz-adv-x="823" 
d="M119 1286v90q0 41 37 41h501q21 0 32 -11.5t11 -27.5v-90q0 -24 -10 -33.5t-33 -9.5h-116v-1073h112q43 0 43 -43v-88q0 -41 -37 -41h-491q-41 0 -41 39v92q0 22 9.5 31.5t31.5 9.5h111v1073h-119q-41 0 -41 41zM190 1767l62 93q15 23 31 25t41 -17l280 -199
q23 -15 24.5 -28.5t-14.5 -36.5l-34 -52q-15 -21 -29 -24t-37 10l-311 172q-37 19 -13 57z" />
    <glyph glyph-name="Iacute" unicode="&#xcd;" horiz-adv-x="823" 
d="M119 1286v90q0 41 37 41h501q21 0 32 -11.5t11 -27.5v-90q0 -24 -10 -33.5t-33 -9.5h-116v-1073h112q43 0 43 -43v-88q0 -41 -37 -41h-491q-41 0 -41 39v92q0 22 9.5 31.5t31.5 9.5h111v1073h-119q-41 0 -41 41zM178.5 1640.5q1.5 13.5 24.5 28.5l280 199q25 19 41 17
t31 -25l61 -93q24 -38 -12 -57l-311 -172q-23 -13 -37 -10t-29 24l-34 52q-16 23 -14.5 36.5z" />
    <glyph glyph-name="Icircumflex" unicode="&#xce;" horiz-adv-x="823" 
d="M119 1286v90q0 41 37 41h501q21 0 32 -11.5t11 -27.5v-90q0 -24 -10 -33.5t-33 -9.5h-116v-1073h112q43 0 43 -43v-88q0 -41 -37 -41h-491q-41 0 -41 39v92q0 22 9.5 31.5t31.5 9.5h111v1073h-119q-41 0 -41 41zM125 1591q-25 25 4 54l205 186q25 22 59 22h33
q34 0 59 -22l205 -186q29 -29 4 -54l-35 -37q-16 -16 -29.5 -16t-41.5 18l-178 117l-179 -117q-28 -18 -41.5 -18t-29.5 16z" />
    <glyph glyph-name="Idieresis" unicode="&#xcf;" horiz-adv-x="823" 
d="M98 1704q0 56 37.5 88.5t89.5 32.5q49 0 87 -32.5t38 -86.5q0 -53 -39 -86t-86 -33q-49 0 -88 32t-39 85zM119 1286v90q0 41 37 41h501q21 0 32 -11.5t11 -27.5v-90q0 -24 -10 -33.5t-33 -9.5h-116v-1073h112q43 0 43 -43v-88q0 -41 -37 -41h-491q-41 0 -41 39v92
q0 22 9.5 31.5t31.5 9.5h111v1073h-119q-41 0 -41 41zM473 1704q0 56 37.5 88.5t89.5 32.5q49 0 87 -32.5t38 -86.5q0 -53 -39 -86t-86 -33q-49 0 -88 32t-39 85z" />
    <glyph glyph-name="Eth" unicode="&#xd0;" horiz-adv-x="1449" 
d="M0 676v82q0 24 8 31.5t33 7.5h139v559q0 33 13.5 47t50.5 14h295q182 0 306.5 -23.5t223.5 -80.5q141 -81 217 -234.5t76 -376.5q0 -357 -223 -548q-185 -154 -508 -154h-391q-33 0 -46.5 11.5t-13.5 45.5v580h-137q-26 0 -34.5 8t-8.5 31zM446 221h158q115 0 200 24
t146 85q129 129 129 375q0 286 -159 405q-113 84 -324 84h-150v-397h232q25 0 33 -7.5t8 -31.5v-82q0 -23 -8.5 -31t-34.5 -8h-230v-416z" />
    <glyph glyph-name="Ntilde" unicode="&#xd1;" horiz-adv-x="1488" 
d="M150 51v1311q0 31 13 43t42 12h133q25 0 40 -8.5t30 -30.5l673 -925h4v911q0 53 54 53h149q28 0 40.5 -12t12.5 -41v-1309q0 -32 -12 -43.5t-37 -11.5h-131q-52 0 -84 43l-667 913h-4v-903q0 -53 -54 -53h-147q-30 0 -42.5 10.5t-12.5 40.5zM410 1677q-18 37 20 60
q100 67 186 67q54 0 134 -35.5t110 -35.5q53 0 123 43q23 14 35.5 12t21.5 -21l33 -65q18 -37 -20 -60q-100 -67 -187 -67q-54 0 -133.5 36t-109.5 36q-53 0 -123 -43q-23 -14 -36 -12.5t-22 20.5z" />
    <glyph glyph-name="Ograve" unicode="&#xd2;" horiz-adv-x="1423" 
d="M92 705q0 219 77 386.5t220.5 260t333.5 92.5q149 0 267 -54.5t194 -152t115.5 -229.5t39.5 -291q0 -171 -47 -311t-130.5 -234t-199.5 -145.5t-253 -51.5q-290 0 -453.5 197t-163.5 533zM375 711q0 -252 88.5 -382t253.5 -130q156 0 248 133.5t92 378.5q0 255 -87 382.5
t-253 127.5q-155 0 -248.5 -136.5t-93.5 -373.5zM510 1767l61 93q15 23 31 25t41 -17l281 -199q23 -15 24.5 -28.5t-14.5 -36.5l-35 -52q-15 -21 -28.5 -23.5t-36.5 9.5l-312 172q-36 19 -12 57z" />
    <glyph glyph-name="Oacute" unicode="&#xd3;" horiz-adv-x="1423" 
d="M92 705q0 219 77 386.5t220.5 260t333.5 92.5q149 0 267 -54.5t194 -152t115.5 -229.5t39.5 -291q0 -171 -47 -311t-130.5 -234t-199.5 -145.5t-253 -51.5q-290 0 -453.5 197t-163.5 533zM375 711q0 -252 88.5 -382t253.5 -130q156 0 248 133.5t92 378.5q0 255 -87 382.5
t-253 127.5q-155 0 -248.5 -136.5t-93.5 -373.5zM497.5 1640.5q1.5 13.5 24.5 28.5l281 199q25 19 40.5 17t30.5 -25l62 -93q24 -38 -12 -57l-312 -172q-23 -12 -36.5 -9.5t-28.5 23.5l-35 52q-16 23 -14.5 36.5z" />
    <glyph glyph-name="Ocircumflex" unicode="&#xd4;" horiz-adv-x="1423" 
d="M92 705q0 219 77 386.5t220.5 260t333.5 92.5q149 0 267 -54.5t194 -152t115.5 -229.5t39.5 -291q0 -171 -47 -311t-130.5 -234t-199.5 -145.5t-253 -51.5q-290 0 -453.5 197t-163.5 533zM375 711q0 -252 88.5 -382t253.5 -130q156 0 248 133.5t92 378.5q0 255 -87 382.5
t-253 127.5q-155 0 -248.5 -136.5t-93.5 -373.5zM444 1591q-24 25 5 54l204 186q25 22 60 22h32q35 0 60 -22l205 -186q29 -29 4 -54l-35 -37q-16 -16 -30 -16t-42 18l-178 117l-178 -117q-28 -18 -42 -18t-30 16z" />
    <glyph glyph-name="Otilde" unicode="&#xd5;" horiz-adv-x="1423" 
d="M92 705q0 219 77 386.5t220.5 260t333.5 92.5q149 0 267 -54.5t194 -152t115.5 -229.5t39.5 -291q0 -171 -47 -311t-130.5 -234t-199.5 -145.5t-253 -51.5q-290 0 -453.5 197t-163.5 533zM375 711q0 -252 88.5 -382t253.5 -130q156 0 248 133.5t92 378.5q0 255 -87 382.5
t-253 127.5q-155 0 -248.5 -136.5t-93.5 -373.5zM392.5 1709.5q4.5 14.5 25.5 27.5q100 67 186 67q54 0 134 -35.5t110 -35.5q53 0 123 43q23 14 35.5 12t21.5 -21l33 -65q9 -18 4.5 -32.5t-25.5 -27.5q-100 -67 -186 -67q-54 0 -134 36t-110 36q-53 0 -123 -43
q-23 -14 -35.5 -12.5t-21.5 20.5l-33 65q-9 18 -4.5 32.5z" />
    <glyph glyph-name="Odieresis" unicode="&#xd6;" horiz-adv-x="1423" 
d="M92 705q0 219 77 386.5t220.5 260t333.5 92.5q149 0 267 -54.5t194 -152t115.5 -229.5t39.5 -291q0 -171 -47 -311t-130.5 -234t-199.5 -145.5t-253 -51.5q-290 0 -453.5 197t-163.5 533zM375 711q0 -252 88.5 -382t253.5 -130q156 0 248 133.5t92 378.5q0 255 -87 382.5
t-253 127.5q-155 0 -248.5 -136.5t-93.5 -373.5zM412 1704q0 56 37.5 88.5t89.5 32.5q49 0 87 -32.5t38 -86.5q0 -53 -39 -86t-86 -33q-49 0 -88 32t-39 85zM786 1704q0 56 37.5 88.5t89.5 32.5q49 0 87 -32.5t38 -86.5q0 -53 -39 -86t-86 -33q-49 0 -88 32t-39 85z" />
    <glyph glyph-name="multiply" unicode="&#xd7;" horiz-adv-x="1071" 
d="M150.5 291q-0.5 14 19.5 35l213 213l-209 211q-22 22 -22 37.5t20 35.5l76 78q22 21 38.5 21.5t37.5 -19.5l211 -211l210 209q22 22 38 22t36 -20l78 -76q21 -22 21.5 -38t-19.5 -37l-211 -213l213 -211q34 -36 -2 -72l-82 -82q-19 -19 -32.5 -19.5t-34.5 19.5l-215 213
l-211 -213q-36 -34 -72 2l-82 82q-19 19 -19.5 33z" />
    <glyph glyph-name="Oslash" unicode="&#xd8;" horiz-adv-x="1433" 
d="M102 705q0 219 77 386.5t220.5 260t333.5 92.5q187 0 326 -90l104 145q27 38 54 19l73 -56q24 -18 27 -31t-10 -30l-115 -162q158 -196 158 -522q0 -171 -47 -311t-130.5 -234t-200 -145.5t-253.5 -51.5q-205 0 -352 103l-95 -133q-21 -29 -37.5 -32t-39.5 15l-58 41
q-23 16 -25.5 30.5t15.5 39.5l117 164q-142 190 -142 502zM385 711q0 -155 43 -256l490 704q-78 66 -193 66q-155 0 -247.5 -138t-92.5 -376zM514 279q84 -84 213 -84q155 0 247.5 135t92.5 381q0 177 -47 295z" />
    <glyph glyph-name="Ugrave" unicode="&#xd9;" horiz-adv-x="1474" 
d="M143 633v735q0 49 54 49h161q26 0 38 -11.5t12 -37.5v-713q0 -236 74 -346t261 -110q179 0 252.5 112.5t73.5 343.5v713q0 49 51 49h162q26 0 37.5 -11.5t11.5 -37.5v-739q0 -319 -150.5 -486.5t-447.5 -167.5q-160 0 -274 43t-183 129t-101 205.5t-32 280.5zM516 1767
l62 93q15 23 30.5 25t40.5 -17l281 -199q23 -15 24.5 -28.5t-14.5 -36.5l-35 -52q-15 -21 -28.5 -23.5t-36.5 9.5l-312 172q-36 19 -12 57z" />
    <glyph glyph-name="Uacute" unicode="&#xda;" horiz-adv-x="1474" 
d="M143 633v735q0 49 54 49h161q26 0 38 -11.5t12 -37.5v-713q0 -236 74 -346t261 -110q179 0 252.5 112.5t73.5 343.5v713q0 49 51 49h162q26 0 37.5 -11.5t11.5 -37.5v-739q0 -319 -150.5 -486.5t-447.5 -167.5q-160 0 -274 43t-183 129t-101 205.5t-32 280.5z
M524.5 1640.5q1.5 13.5 24.5 28.5l280 199q25 19 41 17t31 -25l62 -93q24 -38 -13 -57l-311 -172q-23 -13 -37 -10t-29 24l-34 52q-16 23 -14.5 36.5z" />
    <glyph glyph-name="Ucircumflex" unicode="&#xdb;" horiz-adv-x="1474" 
d="M143 633v735q0 49 54 49h161q26 0 38 -11.5t12 -37.5v-713q0 -236 74 -346t261 -110q179 0 252.5 112.5t73.5 343.5v713q0 49 51 49h162q26 0 37.5 -11.5t11.5 -37.5v-739q0 -319 -150.5 -486.5t-447.5 -167.5q-160 0 -274 43t-183 129t-101 205.5t-32 280.5zM463 1591
q-25 25 4 54l205 186q25 22 59 22h33q34 0 59 -22l205 -186q29 -29 4 -54l-35 -37q-16 -16 -29.5 -16t-41.5 18l-178 117l-179 -117q-28 -18 -41.5 -18t-29.5 16z" />
    <glyph glyph-name="Udieresis" unicode="&#xdc;" horiz-adv-x="1474" 
d="M143 633v735q0 49 54 49h161q26 0 38 -11.5t12 -37.5v-713q0 -236 74 -346t261 -110q179 0 252.5 112.5t73.5 343.5v713q0 49 51 49h162q26 0 37.5 -11.5t11.5 -37.5v-739q0 -319 -150.5 -486.5t-447.5 -167.5q-160 0 -274 43t-183 129t-101 205.5t-32 280.5zM424 1704
q0 56 37.5 88.5t89.5 32.5q49 0 87 -32.5t38 -86.5q0 -53 -39 -86t-86 -33q-49 0 -88 32t-39 85zM799 1704q0 56 37.5 88.5t89.5 32.5q49 0 87 -32.5t38 -86.5q0 -53 -39 -86t-86 -33q-49 0 -88 32t-39 85z" />
    <glyph glyph-name="Yacute" unicode="&#xdd;" horiz-adv-x="1212" 
d="M36 1401q8 16 34 16h190q53 0 72 -39l295 -579h4l291 575q12 25 27 34t44 9h150q54 0 28 -51l-421 -780v-539q0 -47 -48 -47h-172q-47 0 -47 51v524l-444 793q-11 17 -3 33zM397.5 1640.5q1.5 13.5 24.5 28.5l280 199q25 19 41 17t31 -25l62 -93q24 -38 -13 -57
l-311 -172q-23 -13 -37 -10t-29 24l-34 52q-16 23 -14.5 36.5z" />
    <glyph glyph-name="Thorn" unicode="&#xde;" horiz-adv-x="1138" 
d="M150 51v1317q0 49 53 49h162q26 0 37.5 -11t11.5 -38v-180h84q170 0 287.5 -36.5t189.5 -119.5q102 -117 102 -291q0 -230 -162 -360q-147 -113 -383 -113q-56 0 -118 6v-223q0 -28 -11.5 -39.5t-37.5 -11.5h-162q-28 0 -40.5 12t-12.5 39zM414 475q36 -4 92 -4
q174 0 244 76q61 67 61 184q0 252 -291 252h-106v-508z" />
    <glyph glyph-name="germandbls" unicode="&#xdf;" horiz-adv-x="1218" 
d="M133 -137v1155q0 230 117 350q117 123 348 123q202 0 325.5 -98t123.5 -273q0 -110 -61 -203t-167 -120v-2q146 -18 240 -116.5t94 -250.5q0 -117 -42 -205.5t-115.5 -139.5t-163.5 -76t-195 -25q-51 0 -98 6q-21 3 -28 12.5t-7 30.5v110q0 23 8 31t31 8q4 0 33 -1t49 -1
q131 0 204.5 71t73.5 183q0 64 -23.5 112.5t-65.5 77t-94.5 42.5t-115.5 14h-57q-28 0 -35.5 7t-7.5 26v116q0 20 6 25.5t27 5.5h26q109 0 171.5 60t62.5 169q0 100 -52.5 154.5t-150.5 54.5q-104 0 -160 -65q-53 -63 -53 -195v-1171q0 -29 -10.5 -42t-38.5 -13h-150
q-49 0 -49 53z" />
    <glyph glyph-name="agrave" unicode="&#xe0;" horiz-adv-x="1142" 
d="M66 479q0 129 36.5 233.5t98.5 170.5t141 101.5t166 35.5q81 0 152 -33t110 -86l4 55q3 37 43 37h144q43 0 43 -45v-723q0 -29 7.5 -42t28.5 -13h17q19 0 28 -7.5t9 -27.5v-96q0 -39 -41 -39h-99q-144 0 -168 121h-4q-47 -63 -129 -104.5t-168 -41.5q-105 0 -187 41
t-131.5 111.5t-75 160t-25.5 191.5zM322 496q0 -139 54.5 -228.5t162.5 -89.5q70 0 130.5 43t86.5 96v396q-31 45 -88 74.5t-115 29.5q-99 0 -165 -83.5t-66 -237.5zM350 1358l62 92q15 23 30.5 25t40.5 -17l281 -198q23 -15 24.5 -29t-14.5 -37l-35 -51q-15 -21 -28.5 -24
t-36.5 9l-312 172q-37 19 -12 58z" />
    <glyph glyph-name="aacute" unicode="&#xe1;" horiz-adv-x="1142" 
d="M66 479q0 129 36.5 233.5t98.5 170.5t141 101.5t166 35.5q81 0 152 -33t110 -86l4 55q3 37 43 37h144q43 0 43 -45v-723q0 -29 7.5 -42t28.5 -13h17q19 0 28 -7.5t9 -27.5v-96q0 -39 -41 -39h-99q-144 0 -168 121h-4q-47 -63 -129 -104.5t-168 -41.5q-105 0 -187 41
t-131.5 111.5t-75 160t-25.5 191.5zM322 496q0 -139 54.5 -228.5t162.5 -89.5q70 0 130.5 43t86.5 96v396q-31 45 -88 74.5t-115 29.5q-99 0 -165 -83.5t-66 -237.5zM358.5 1231q1.5 14 24.5 29l281 198q25 19 40.5 17t30.5 -25l62 -92q25 -38 -13 -58l-311 -172
q-23 -12 -36.5 -9t-28.5 24l-35 51q-16 23 -14.5 37z" />
    <glyph glyph-name="acircumflex" unicode="&#xe2;" horiz-adv-x="1142" 
d="M66 479q0 129 36.5 233.5t98.5 170.5t141 101.5t166 35.5q81 0 152 -33t110 -86l4 55q3 37 43 37h144q43 0 43 -45v-723q0 -29 7.5 -42t28.5 -13h17q19 0 28 -7.5t9 -27.5v-96q0 -39 -41 -39h-99q-144 0 -168 121h-4q-47 -63 -129 -104.5t-168 -41.5q-105 0 -187 41
t-131.5 111.5t-75 160t-25.5 191.5zM291 1182q-25 24 4 53l205 186q26 23 59 23h33q33 0 59 -23l205 -186q28 -29 4 -53l-35 -37q-16 -16 -29.5 -16t-41.5 18l-179 117l-178 -117q-28 -18 -41.5 -18t-29.5 16zM322 496q0 -139 54.5 -228.5t162.5 -89.5q70 0 130.5 43
t86.5 96v396q-31 45 -88 74.5t-115 29.5q-99 0 -165 -83.5t-66 -237.5z" />
    <glyph glyph-name="atilde" unicode="&#xe3;" horiz-adv-x="1142" 
d="M66 479q0 129 36.5 233.5t98.5 170.5t141 101.5t166 35.5q81 0 152 -33t110 -86l4 55q3 37 43 37h144q43 0 43 -45v-723q0 -29 7.5 -42t28.5 -13h17q19 0 28 -7.5t9 -27.5v-96q0 -39 -41 -39h-99q-144 0 -168 121h-4q-47 -63 -129 -104.5t-168 -41.5q-105 0 -187 41
t-131.5 111.5t-75 160t-25.5 191.5zM238.5 1300q4.5 14 25.5 27q101 68 187 68q54 0 133.5 -36t109.5 -36q53 0 123 43q23 14 35.5 12.5t21.5 -20.5l33 -66q10 -18 5.5 -32t-25.5 -27q-101 -68 -187 -68q-54 0 -133.5 36t-109.5 36q-53 0 -123 -43q-23 -14 -36 -12.5
t-22 20.5l-32 66q-10 18 -5.5 32zM322 496q0 -139 54.5 -228.5t162.5 -89.5q70 0 130.5 43t86.5 96v396q-31 45 -88 74.5t-115 29.5q-99 0 -165 -83.5t-66 -237.5z" />
    <glyph glyph-name="adieresis" unicode="&#xe4;" horiz-adv-x="1142" 
d="M66 479q0 129 36.5 233.5t98.5 170.5t141 101.5t166 35.5q81 0 152 -33t110 -86l4 55q3 37 43 37h144q43 0 43 -45v-723q0 -29 7.5 -42t28.5 -13h17q19 0 28 -7.5t9 -27.5v-96q0 -39 -41 -39h-99q-144 0 -168 121h-4q-47 -63 -129 -104.5t-168 -41.5q-105 0 -187 41
t-131.5 111.5t-75 160t-25.5 191.5zM274 1294q0 56 37.5 88.5t89.5 32.5q49 0 87 -32.5t38 -86.5q0 -53 -39 -85.5t-86 -32.5q-49 0 -88 31.5t-39 84.5zM322 496q0 -139 54.5 -228.5t162.5 -89.5q70 0 130.5 43t86.5 96v396q-31 45 -88 74.5t-115 29.5q-99 0 -165 -83.5
t-66 -237.5zM649 1294q0 56 37.5 88.5t89.5 32.5q49 0 87 -32.5t38 -86.5q0 -53 -39 -85.5t-86 -32.5q-49 0 -88 31.5t-39 84.5z" />
    <glyph glyph-name="aring" unicode="&#xe5;" horiz-adv-x="1142" 
d="M66 479q0 129 36.5 233.5t98.5 170.5t141 101.5t166 35.5q81 0 152 -33t110 -86l4 55q3 37 43 37h144q43 0 43 -45v-723q0 -29 7.5 -42t28.5 -13h17q19 0 28 -7.5t9 -27.5v-96q0 -39 -41 -39h-99q-144 0 -168 121h-4q-47 -63 -129 -104.5t-168 -41.5q-105 0 -187 41
t-131.5 111.5t-75 160t-25.5 191.5zM322 496q0 -139 54.5 -228.5t162.5 -89.5q70 0 130.5 43t86.5 96v396q-31 45 -88 74.5t-115 29.5q-99 0 -165 -83.5t-66 -237.5zM403 1280q0 70 48 117t120 47t120 -47t48 -117t-48 -117t-120 -47t-120 47t-48 117zM518 1280
q0 -24 14.5 -39.5t38.5 -15.5t39 15.5t15 39.5t-15 39.5t-39 15.5t-38.5 -15.5t-14.5 -39.5z" />
    <glyph glyph-name="ae" unicode="&#xe6;" horiz-adv-x="1599" 
d="M53 274q0 96 47.5 167t131 111.5t185.5 58.5t222 16v49q0 158 -182 158q-116 0 -260 -72q-34 -15 -45 18l-35 94q-12 36 28 58q157 88 347 88q101 0 181 -33.5t120 -101.5h4q52 62 138 98.5t187 36.5q103 0 183.5 -40t130 -109t75 -157.5t25.5 -191.5q0 -49 -12.5 -64.5
t-46.5 -15.5h-603q12 -119 92 -193.5t201 -74.5q126 0 252 49q25 8 35.5 4t15.5 -22l29 -105q7 -20 1 -34.5t-30 -24.5q-71 -32 -165 -49t-179 -17q-234 0 -368 134q-165 -134 -367 -134q-146 0 -242 80.5t-96 218.5zM305 293q0 -58 41 -91.5t107 -33.5q61 0 122.5 25.5
t100.5 62.5q-37 79 -37 182v23q-157 0 -245.5 -42.5t-88.5 -125.5zM879 602h419q0 99 -46.5 163t-143.5 64q-95 0 -155.5 -65t-73.5 -162z" />
    <glyph glyph-name="ccedilla" unicode="&#xe7;" horiz-adv-x="915" 
d="M61 487q0 241 136.5 387t371.5 146q149 0 275 -57q19 -8 22.5 -21t-2.5 -33l-26 -110q-9 -36 -47 -19q-98 45 -197 45q-131 0 -204 -86.5t-73 -238.5t69 -242t198 -90q103 0 215 45q36 13 45 -16l28 -101q7 -23 2.5 -36t-26.5 -23q-129 -59 -285 -62l-4 -65h16
q101 0 156 -44.5t55 -129.5q0 -77 -65 -127.5t-170 -50.5q-80 0 -150 28q-18 7 -23.5 15.5t-2.5 23.5l14 66q3 12 10.5 15t32.5 -3q59 -18 103 -18q36 0 59.5 14t23.5 39q0 28 -20 40.5t-80 12.5h-29q-49 0 -61.5 13.5t-9.5 50.5l14 131q-179 32 -275 163t-96 338z" />
    <glyph glyph-name="egrave" unicode="&#xe8;" horiz-adv-x="1054" 
d="M70 500q0 231 140 375.5t368 144.5q182 0 299 -123q120 -125 120 -367v-30q0 -36 -14 -48t-53 -12h-600q12 -119 92 -192.5t201 -73.5q125 0 251 49q43 16 52 -18l28 -105q7 -20 1 -34.5t-29 -24.5q-71 -32 -165 -49t-179 -17q-240 0 -376 142t-136 383zM326 1358l61 92
q15 23 31 25t41 -17l280 -198q23 -15 25 -29t-14 -37l-35 -51q-15 -21 -29 -24t-37 9l-311 172q-37 19 -12 58zM334 602h420v23q-3 86 -52.5 145t-138.5 59q-95 0 -155.5 -65t-73.5 -162z" />
    <glyph glyph-name="eacute" unicode="&#xe9;" horiz-adv-x="1054" 
d="M70 500q0 231 140 375.5t368 144.5q182 0 299 -123q120 -125 120 -367v-30q0 -36 -14 -48t-53 -12h-600q12 -119 92 -192.5t201 -73.5q125 0 251 49q43 16 52 -18l28 -105q7 -20 1 -34.5t-29 -24.5q-71 -32 -165 -49t-179 -17q-240 0 -376 142t-136 383zM334 602h420v23
q-3 86 -52.5 145t-138.5 59q-95 0 -155.5 -65t-73.5 -162zM354.5 1231q1.5 14 24.5 29l280 198q25 19 41 17t31 -25l62 -92q25 -38 -13 -58l-311 -172q-23 -12 -37 -9t-29 24l-34 51q-16 23 -14.5 37z" />
    <glyph glyph-name="ecircumflex" unicode="&#xea;" horiz-adv-x="1054" 
d="M70 500q0 231 140 375.5t368 144.5q182 0 299 -123q120 -125 120 -367v-30q0 -36 -14 -48t-53 -12h-600q12 -119 92 -192.5t201 -73.5q125 0 251 49q43 16 52 -18l28 -105q7 -20 1 -34.5t-29 -24.5q-71 -32 -165 -49t-179 -17q-240 0 -376 142t-136 383zM274 1182
q-24 24 5 53l204 186q26 23 60 23h32q34 0 60 -23l205 -186q28 -29 4 -53l-35 -37q-16 -16 -30 -16t-42 18l-178 117l-178 -117q-28 -18 -42 -18t-30 16zM334 602h420v23q-3 86 -52.5 145t-138.5 59q-95 0 -155.5 -65t-73.5 -162z" />
    <glyph glyph-name="edieresis" unicode="&#xeb;" horiz-adv-x="1054" 
d="M70 500q0 231 140 375.5t368 144.5q182 0 299 -123q120 -125 120 -367v-30q0 -36 -14 -48t-53 -12h-600q12 -119 92 -192.5t201 -73.5q125 0 251 49q43 16 52 -18l28 -105q7 -20 1 -34.5t-29 -24.5q-71 -32 -165 -49t-179 -17q-240 0 -376 142t-136 383zM254 1294
q0 56 37.5 88.5t89.5 32.5q49 0 87 -32.5t38 -86.5q0 -53 -39 -85.5t-86 -32.5q-49 0 -88 31.5t-39 84.5zM334 602h420v23q-3 86 -52.5 145t-138.5 59q-95 0 -155.5 -65t-73.5 -162zM629 1294q0 56 37.5 88.5t89.5 32.5q49 0 87 -32.5t38 -86.5q0 -53 -39 -85.5t-86 -32.5
q-49 0 -88 31.5t-39 84.5z" />
    <glyph glyph-name="igrave" unicode="&#xec;" horiz-adv-x="534" 
d="M47 1358l62 92q15 23 30.5 25t40.5 -17l281 -198q23 -15 24.5 -29t-14.5 -37l-35 -51q-15 -21 -28.5 -24t-36.5 9l-312 172q-37 19 -12 58zM145 51v895q0 47 54 47h143q26 0 38.5 -10t12.5 -37v-895q0 -27 -12 -39t-39 -12h-143q-28 0 -41 12t-13 39z" />
    <glyph glyph-name="iacute" unicode="&#xed;" horiz-adv-x="534" 
d="M34.5 1231q1.5 14 24.5 29l281 198q25 19 41 17t31 -25l61 -92q25 -39 -12 -58l-311 -172q-23 -12 -37 -9t-29 24l-35 51q-16 23 -14.5 37zM145 51v895q0 47 54 47h143q26 0 38.5 -10t12.5 -37v-895q0 -27 -12 -39t-39 -12h-143q-28 0 -41 12t-13 39z" />
    <glyph glyph-name="icircumflex" unicode="&#xee;" horiz-adv-x="534" 
d="M-18 1182q-24 24 4 53l204 186q26 23 60 23h33q33 0 59 -23l205 -186q29 -29 4 -53l-35 -37q-16 -16 -30 -16t-42 18l-178 117l-178 -117q-28 -18 -42 -18t-30 16zM145 51v895q0 47 54 47h143q26 0 38.5 -10t12.5 -37v-895q0 -27 -12 -39t-39 -12h-143q-28 0 -41 12
t-13 39z" />
    <glyph glyph-name="idieresis" unicode="&#xef;" horiz-adv-x="534" 
d="M-45 1294q0 56 37.5 88.5t89.5 32.5q49 0 87 -32.5t38 -86.5q0 -53 -39 -85.5t-86 -32.5q-49 0 -88 31.5t-39 84.5zM145 51v895q0 47 54 47h143q26 0 38.5 -10t12.5 -37v-895q0 -27 -12 -39t-39 -12h-143q-28 0 -41 12t-13 39zM330 1294q0 56 37.5 88.5t89.5 32.5
q49 0 87 -32.5t38 -86.5q0 -53 -39 -85.5t-86 -32.5q-49 0 -88 31.5t-39 84.5z" />
    <glyph glyph-name="eth" unicode="&#xf0;" horiz-adv-x="1132" 
d="M70 500q0 226 133.5 373t353.5 147q113 0 180 -49q-65 156 -184 293l-147 -107q-22 -15 -35 -14t-25 20l-39 58q-12 16 -10 28.5t22 26.5l127 92q-39 36 -81 64q-21 13 -22.5 24.5t11.5 24.5l56 63q13 15 28 15.5t41 -13.5q70 -41 111 -73l100 73q22 15 35 14t25 -18
l38 -51q17 -22 15 -33.5t-27 -30.5l-67 -49q178 -168 260 -380.5t82 -434.5q0 -125 -31 -230.5t-90.5 -186t-154.5 -126t-216 -45.5q-119 0 -213.5 40t-154 111t-90.5 166t-31 208zM326 504q0 -67 11.5 -123.5t37 -105t72.5 -76t112 -27.5t113.5 27t75.5 73.5t40 103
t13 122.5q0 67 -11.5 123t-37.5 104t-73 75t-112 27q-66 0 -114 -27t-75 -74t-39.5 -102t-12.5 -120z" />
    <glyph glyph-name="ntilde" unicode="&#xf1;" 
d="M129 49v893q0 51 51 51h133q23 0 35.5 -8.5t13.5 -30.5l3 -53q147 119 331 119q166 0 245 -96.5t79 -270.5v-600q0 -27 -11 -40t-38 -13h-148q-27 0 -38 13t-11 40v557q0 93 -34 143t-122 50q-59 0 -126 -28t-115 -70v-654q0 -51 -49 -51h-150q-49 0 -49 49zM255.5 1300
q4.5 14 25.5 27q101 68 186 68q54 0 134 -36t110 -36q53 0 123 43q23 14 35.5 12.5t21.5 -20.5l33 -66q9 -18 4.5 -32t-25.5 -27q-101 -68 -186 -68q-54 0 -134 36t-110 36q-53 0 -123 -43q-23 -14 -35.5 -12.5t-21.5 20.5l-33 66q-9 18 -4.5 32z" />
    <glyph glyph-name="ograve" unicode="&#xf2;" horiz-adv-x="1126" 
d="M70 500q0 149 57.5 265.5t172 185.5t269.5 69q241 0 364.5 -143t123.5 -379q0 -149 -57.5 -266.5t-172.5 -187t-270 -69.5q-122 0 -216.5 39.5t-153 111t-88 166t-29.5 208.5zM326 504q0 -67 11.5 -123.5t36.5 -105.5t72.5 -77t112.5 -28t113.5 27t75.5 74.5t40 104
t13 122.5q0 67 -11.5 122.5t-37.5 103t-73 74.5t-112 27q-66 0 -114 -26.5t-75 -73t-39.5 -101.5t-12.5 -120zM350 1358l62 92q15 23 30.5 25t40.5 -17l281 -198q23 -15 24.5 -29t-14.5 -37l-35 -51q-15 -21 -28.5 -24t-36.5 9l-312 172q-37 19 -12 58z" />
    <glyph glyph-name="oacute" unicode="&#xf3;" horiz-adv-x="1126" 
d="M70 500q0 149 57.5 265.5t172 185.5t269.5 69q241 0 364.5 -143t123.5 -379q0 -149 -57.5 -266.5t-172.5 -187t-270 -69.5q-122 0 -216.5 39.5t-153 111t-88 166t-29.5 208.5zM326 504q0 -67 11.5 -123.5t36.5 -105.5t72.5 -77t112.5 -28t113.5 27t75.5 74.5t40 104
t13 122.5q0 67 -11.5 122.5t-37.5 103t-73 74.5t-112 27q-66 0 -114 -26.5t-75 -73t-39.5 -101.5t-12.5 -120zM329.5 1231q1.5 14 24.5 29l281 198q25 19 41 17t31 -25l61 -92q25 -39 -12 -58l-312 -172q-23 -12 -36.5 -9t-28.5 24l-35 51q-16 23 -14.5 37z" />
    <glyph glyph-name="ocircumflex" unicode="&#xf4;" horiz-adv-x="1126" 
d="M70 500q0 149 57.5 265.5t172 185.5t269.5 69q241 0 364.5 -143t123.5 -379q0 -149 -57.5 -266.5t-172.5 -187t-270 -69.5q-122 0 -216.5 39.5t-153 111t-88 166t-29.5 208.5zM276 1182q-24 24 5 53l204 186q26 23 60 23h33q33 0 59 -23l205 -186q28 -29 4 -53l-35 -37
q-16 -16 -30 -16t-42 18l-178 117l-178 -117q-28 -18 -42 -18t-30 16zM326 504q0 -67 11.5 -123.5t36.5 -105.5t72.5 -77t112.5 -28t113.5 27t75.5 74.5t40 104t13 122.5q0 67 -11.5 122.5t-37.5 103t-73 74.5t-112 27q-66 0 -114 -26.5t-75 -73t-39.5 -101.5t-12.5 -120z
" />
    <glyph glyph-name="otilde" unicode="&#xf5;" horiz-adv-x="1126" 
d="M70 500q0 149 57.5 265.5t172 185.5t269.5 69q241 0 364.5 -143t123.5 -379q0 -149 -57.5 -266.5t-172.5 -187t-270 -69.5q-122 0 -216.5 39.5t-153 111t-88 166t-29.5 208.5zM228.5 1300q4.5 14 25.5 27q101 68 186 68q54 0 134 -36t110 -36q53 0 123 43
q23 14 35.5 12.5t21.5 -20.5l33 -66q10 -18 5.5 -32t-25.5 -27q-101 -68 -187 -68q-54 0 -134 36t-110 36q-52 0 -122 -43q-23 -14 -36 -12.5t-22 20.5l-33 66q-9 18 -4.5 32zM326 504q0 -67 11.5 -123.5t36.5 -105.5t72.5 -77t112.5 -28t113.5 27t75.5 74.5t40 104
t13 122.5q0 67 -11.5 122.5t-37.5 103t-73 74.5t-112 27q-66 0 -114 -26.5t-75 -73t-39.5 -101.5t-12.5 -120z" />
    <glyph glyph-name="odieresis" unicode="&#xf6;" horiz-adv-x="1126" 
d="M70 500q0 149 57.5 265.5t172 185.5t269.5 69q241 0 364.5 -143t123.5 -379q0 -149 -57.5 -266.5t-172.5 -187t-270 -69.5q-122 0 -216.5 39.5t-153 111t-88 166t-29.5 208.5zM250 1294q0 56 37.5 88.5t89.5 32.5q49 0 87 -32.5t38 -86.5q0 -53 -39 -85.5t-86 -32.5
q-49 0 -88 31.5t-39 84.5zM326 504q0 -67 11.5 -123.5t36.5 -105.5t72.5 -77t112.5 -28t113.5 27t75.5 74.5t40 104t13 122.5q0 67 -11.5 122.5t-37.5 103t-73 74.5t-112 27q-66 0 -114 -26.5t-75 -73t-39.5 -101.5t-12.5 -120zM625 1294q0 56 37.5 88.5t89.5 32.5
q49 0 87 -32.5t38 -86.5q0 -53 -39 -85.5t-86 -32.5q-49 0 -88 31.5t-39 84.5z" />
    <glyph glyph-name="divide" unicode="&#xf7;" horiz-adv-x="1071" 
d="M78 483v115q0 27 10 38t37 11h815q30 0 41.5 -11.5t11.5 -39.5v-109q0 -30 -11 -42.5t-40 -12.5h-815q-28 0 -38.5 12.5t-10.5 38.5zM391 186q0 64 44.5 102t103.5 38q58 0 100.5 -37.5t42.5 -100.5q0 -61 -44 -99t-99 -38q-57 0 -102.5 36.5t-45.5 98.5zM391 895
q0 64 44 100.5t104 36.5q58 0 100.5 -37t42.5 -100q0 -61 -44 -99t-99 -38q-57 0 -102.5 37.5t-45.5 99.5z" />
    <glyph glyph-name="oslash" unicode="&#xf8;" horiz-adv-x="1126" 
d="M70 500q0 149 57.5 265.5t172 185.5t269.5 69q134 0 224 -43l47 76q15 25 29 30.5t34 -6.5l33 -20q16 -10 16.5 -21.5t-10.5 -29.5l-53 -86q168 -134 168 -422q0 -149 -57.5 -266.5t-172.5 -187t-270 -69.5q-133 0 -223 43l-55 -88q-20 -36 -52 -14l-41 27q-28 17 -12 43
l59 94q-163 138 -163 420zM326 504q0 -131 39 -213l315 506q-48 28 -113 28q-66 0 -114 -26.5t-75 -73t-39.5 -101.5t-12.5 -120zM444 199q50 -29 115 -29t113.5 27t75.5 74.5t40 104t13 122.5q0 130 -41 213z" />
    <glyph glyph-name="ugrave" unicode="&#xf9;" horiz-adv-x="1138" 
d="M127 342v604q0 47 53 47h144q26 0 38.5 -10t12.5 -37v-561q0 -94 32.5 -142t118.5 -48q58 0 124.5 28t113.5 70v653q0 47 51 47h146q26 0 38.5 -10t12.5 -37v-889q0 -32 -11.5 -44.5t-42.5 -12.5h-131q-46 0 -49 41l-2 51q-145 -117 -325 -117q-166 0 -245 97t-79 270z
M348 1358l62 92q15 23 30.5 25t40.5 -17l281 -198q23 -15 24.5 -29t-14.5 -37l-35 -51q-15 -21 -28.5 -24t-36.5 9l-312 172q-37 19 -12 58z" />
    <glyph glyph-name="uacute" unicode="&#xfa;" horiz-adv-x="1138" 
d="M127 342v604q0 47 53 47h144q26 0 38.5 -10t12.5 -37v-561q0 -94 32.5 -142t118.5 -48q58 0 124.5 28t113.5 70v653q0 47 51 47h146q26 0 38.5 -10t12.5 -37v-889q0 -32 -11.5 -44.5t-42.5 -12.5h-131q-46 0 -49 41l-2 51q-145 -117 -325 -117q-166 0 -245 97t-79 270z
M376.5 1231q1.5 14 24.5 29l281 198q25 19 41 17t31 -25l61 -92q25 -39 -12 -58l-311 -172q-23 -12 -37 -9t-29 24l-35 51q-16 23 -14.5 37z" />
    <glyph glyph-name="ucircumflex" unicode="&#xfb;" horiz-adv-x="1138" 
d="M127 342v604q0 47 53 47h144q26 0 38.5 -10t12.5 -37v-561q0 -94 32.5 -142t118.5 -48q58 0 124.5 28t113.5 70v653q0 47 51 47h146q26 0 38.5 -10t12.5 -37v-889q0 -32 -11.5 -44.5t-42.5 -12.5h-131q-46 0 -49 41l-2 51q-145 -117 -325 -117q-166 0 -245 97t-79 270z
M283 1182q-25 24 4 53l205 186q26 23 59 23h33q33 0 59 -23l205 -186q28 -29 4 -53l-35 -37q-16 -16 -30 -16t-42 18l-178 117l-178 -117q-28 -18 -42 -18t-30 16z" />
    <glyph glyph-name="udieresis" unicode="&#xfc;" horiz-adv-x="1138" 
d="M127 342v604q0 47 53 47h144q26 0 38.5 -10t12.5 -37v-561q0 -94 32.5 -142t118.5 -48q58 0 124.5 28t113.5 70v653q0 47 51 47h146q26 0 38.5 -10t12.5 -37v-889q0 -32 -11.5 -44.5t-42.5 -12.5h-131q-46 0 -49 41l-2 51q-145 -117 -325 -117q-166 0 -245 97t-79 270z
M260 1294q0 56 37.5 88.5t89.5 32.5q49 0 87 -32.5t38 -86.5q0 -53 -39 -85.5t-86 -32.5q-49 0 -88 31.5t-39 84.5zM635 1294q0 56 37.5 88.5t89.5 32.5q49 0 87 -32.5t38 -86.5q0 -53 -39 -85.5t-86 -32.5q-49 0 -88 31.5t-39 84.5z" />
    <glyph glyph-name="yacute" unicode="&#xfd;" horiz-adv-x="1052" 
d="M29 -383l14 107q3 20 11.5 28t25.5 8q9 0 39 -3t43 -3q92 0 140.5 33.5t80.5 108.5l39 92l-373 960q-8 19 -1 32t28 13h192q46 0 58 -41l225 -671l215 665q8 25 21.5 36t39.5 11h166q48 0 29 -49l-404 -1061q-69 -184 -168.5 -256.5t-283.5 -72.5q-73 0 -109 10
q-23 7 -27 18t-1 35zM333.5 1231q1.5 14 24.5 29l281 198q25 19 41 17t31 -25l61 -92q25 -39 -12 -58l-311 -172q-23 -12 -37 -9t-29 24l-35 51q-16 23 -14.5 37z" />
    <glyph glyph-name="thorn" unicode="&#xfe;" horiz-adv-x="1140" 
d="M129 -389v1773q0 26 8.5 39.5t32.5 16.5l166 22q41 4 41 -37v-510q47 47 120 76t148 29q182 0 297 -125q62 -68 95.5 -168t33.5 -215q0 -118 -34.5 -221t-98.5 -176q-124 -140 -313 -140q-71 0 -137.5 26t-110.5 71v-461q0 -29 -13.5 -41t-41.5 -12h-144q-49 0 -49 53z
M377 274q32 -42 88 -71t113 -29q99 0 161 76q74 92 74 250t-57 237q-58 84 -170 84q-55 0 -116 -30t-93 -70v-447z" />
    <glyph glyph-name="ydieresis" unicode="&#xff;" horiz-adv-x="1052" 
d="M29 -383l14 107q3 20 11.5 28t25.5 8q9 0 39 -3t43 -3q92 0 140.5 33.5t80.5 108.5l39 92l-373 960q-8 19 -1 32t28 13h192q46 0 58 -41l225 -671l215 665q8 25 21.5 36t39.5 11h166q48 0 29 -49l-404 -1061q-69 -184 -168.5 -256.5t-283.5 -72.5q-73 0 -109 10
q-23 7 -27 18t-1 35zM240 1294q0 56 37.5 88.5t89.5 32.5q49 0 87 -32.5t38 -86.5q0 -53 -39 -85.5t-86 -32.5q-49 0 -88 31.5t-39 84.5zM614 1294q0 56 37.5 88.5t89.5 32.5q49 0 87 -32.5t38 -86.5q0 -53 -39 -85.5t-86 -32.5q-49 0 -88 31.5t-39 84.5z" />
    <glyph glyph-name="OE" unicode="&#x152;" horiz-adv-x="1984" 
d="M92 705q0 333 172 536t459 203q185 0 311 -98q0 36 10 53.5t35 17.5h772q21 0 33.5 -11t9.5 -32l-14 -127q-3 -26 -18 -34.5t-50 -8.5h-516v-370h473q54 0 54 -46v-116q0 -49 -51 -49h-476v-410h549q51 0 51 -47v-117q0 -49 -49 -49h-757q-32 0 -45 20.5t-13 63.5
q-59 -47 -151.5 -78t-184.5 -31q-289 0 -446.5 196t-157.5 534zM375 711q0 -250 89 -382t253 -132q83 0 169.5 28t145.5 74v807q-52 56 -136 86.5t-161 30.5q-150 0 -243 -113q-117 -139 -117 -399z" />
    <glyph glyph-name="oe" unicode="&#x153;" horiz-adv-x="1757" 
d="M70 500q0 149 57.5 265.5t172 185.5t269.5 69q234 0 351 -164q131 164 360 164q184 0 301 -123q119 -124 119 -367v-30q0 -36 -14.5 -48t-53.5 -12h-598q12 -119 91 -192.5t200 -73.5q124 0 252 49q24 6 25 6q22 0 28 -24l29 -113q2 -6 2 -14q0 -22 -33 -37
q-71 -32 -165 -49t-179 -17q-247 0 -373 168q-128 -168 -354 -168q-122 0 -216.5 39.5t-153 111t-88 166t-29.5 208.5zM326 502q0 -67 11.5 -123t36.5 -105.5t72.5 -77.5t112.5 -28t113.5 27t75.5 74.5t40 104t13 122.5t-11.5 122.5t-37.5 105t-73 76t-112 27.5
q-66 0 -114 -27.5t-75 -75t-39.5 -103t-12.5 -119.5zM1038 602h418q0 96 -47.5 161.5t-142.5 65.5t-155 -65t-73 -162z" />
    <glyph glyph-name="Ydieresis" unicode="&#x178;" horiz-adv-x="1212" 
d="M36 1401q8 16 34 16h190q53 0 72 -39l295 -579h4l291 575q12 25 27 34t44 9h150q54 0 28 -51l-421 -780v-539q0 -47 -48 -47h-172q-47 0 -47 51v524l-444 793q-11 17 -3 33zM311 1704q0 56 37.5 88.5t89.5 32.5q49 0 87 -32.5t38 -86.5q0 -53 -39 -86t-86 -33
q-49 0 -88 32t-39 85zM686 1704q0 56 37.5 88.5t89.5 32.5q49 0 87 -32.5t38 -86.5q0 -53 -39 -86t-86 -33q-49 0 -88 32t-39 85z" />
    <glyph glyph-name="circumflex" unicode="&#x2c6;" horiz-adv-x="704" 
d="M68 1182q-24 24 4 53l204 186q26 23 60 23h33q33 0 59 -23l205 -186q29 -29 4 -53l-35 -37q-16 -16 -30 -16t-42 18l-178 117l-178 -117q-28 -18 -42 -18t-30 16z" />
    <glyph glyph-name="tilde" unicode="&#x2dc;" horiz-adv-x="704" 
d="M15.5 1300q4.5 14 25.5 27q101 68 186 68q54 0 134 -36t110 -36q53 0 123 43q23 14 35.5 12.5t21.5 -20.5l33 -66q10 -18 5.5 -32t-25.5 -27q-101 -68 -187 -68q-54 0 -134 36t-110 36q-52 0 -122 -43q-23 -14 -36 -12.5t-22 20.5l-33 66q-9 18 -4.5 32z" />
    <glyph glyph-name="uni2000" unicode="&#x2000;" horiz-adv-x="942" 
 />
    <glyph glyph-name="uni2001" unicode="&#x2001;" horiz-adv-x="1885" 
 />
    <glyph glyph-name="uni2002" unicode="&#x2002;" horiz-adv-x="942" 
 />
    <glyph glyph-name="uni2003" unicode="&#x2003;" horiz-adv-x="1885" 
 />
    <glyph glyph-name="uni2004" unicode="&#x2004;" horiz-adv-x="628" 
 />
    <glyph glyph-name="uni2005" unicode="&#x2005;" horiz-adv-x="471" 
 />
    <glyph glyph-name="uni2006" unicode="&#x2006;" horiz-adv-x="314" 
 />
    <glyph glyph-name="uni2007" unicode="&#x2007;" horiz-adv-x="314" 
 />
    <glyph glyph-name="uni2008" unicode="&#x2008;" horiz-adv-x="235" 
 />
    <glyph glyph-name="uni2009" unicode="&#x2009;" horiz-adv-x="377" 
 />
    <glyph glyph-name="uni200A" unicode="&#x200a;" horiz-adv-x="104" 
 />
    <glyph glyph-name="uni2010" unicode="&#x2010;" horiz-adv-x="587" 
d="M72 475v133q0 27 10 38t37 11h344q30 0 41.5 -11.5t11.5 -39.5v-129q0 -30 -11 -42.5t-40 -12.5h-344q-28 0 -38.5 13t-10.5 40z" />
    <glyph glyph-name="uni2011" unicode="&#x2011;" horiz-adv-x="587" 
d="M72 475v133q0 27 10 38t37 11h344q30 0 41.5 -11.5t11.5 -39.5v-129q0 -30 -11 -42.5t-40 -12.5h-344q-28 0 -38.5 13t-10.5 40z" />
    <glyph glyph-name="figuredash" unicode="&#x2012;" horiz-adv-x="587" 
d="M72 475v133q0 27 10 38t37 11h344q30 0 41.5 -11.5t11.5 -39.5v-129q0 -30 -11 -42.5t-40 -12.5h-344q-28 0 -38.5 13t-10.5 40z" />
    <glyph glyph-name="endash" unicode="&#x2013;" horiz-adv-x="1024" 
d="M0 475v133q0 27 10 38t37 11h924q30 0 41.5 -11.5t11.5 -39.5v-129q0 -30 -11 -42.5t-40 -12.5h-924q-28 0 -38.5 13t-10.5 40z" />
    <glyph glyph-name="emdash" unicode="&#x2014;" horiz-adv-x="2048" 
d="M0 475v133q0 27 10 38t37 11h1948q30 0 41.5 -11.5t11.5 -39.5v-129q0 -30 -11 -42.5t-40 -12.5h-1948q-28 0 -38.5 13t-10.5 40z" />
    <glyph glyph-name="quoteleft" unicode="&#x2018;" horiz-adv-x="438" 
d="M66 1067q0 108 57 205.5t149 161.5q20 14 37 14q16 0 31 -18l20 -25q17 -22 -6 -45q-84 -84 -84 -148q0 -29 42 -85t42 -95q0 -59 -41 -98t-100 -39q-63 0 -105 53t-42 119z" />
    <glyph glyph-name="quoteright" unicode="&#x2019;" horiz-adv-x="438" 
d="M78 938q-17 22 6 45q84 84 84 147q0 29 -42 85.5t-42 95.5q0 59 41 98t100 39q63 0 105.5 -53t42.5 -119q0 -108 -57.5 -205t-149.5 -162q-20 -14 -37 -14q-16 0 -31 18z" />
    <glyph glyph-name="quotesinglbase" unicode="&#x201a;" horiz-adv-x="438" 
d="M78 -272q-17 22 6 45q84 84 84 147q0 29 -42 85t-42 95q0 59 41 98.5t100 39.5q63 0 105.5 -53t42.5 -119q0 -108 -57.5 -205t-149.5 -162q-20 -14 -37 -14q-16 0 -31 18z" />
    <glyph glyph-name="quotedblleft" unicode="&#x201c;" horiz-adv-x="831" 
d="M66 1067q0 108 57 205.5t149 161.5q20 14 37 14q16 0 31 -18l20 -25q17 -22 -6 -45q-84 -84 -84 -148q0 -29 42 -85t42 -95q0 -59 -41 -98t-100 -39q-63 0 -105 53t-42 119zM459 1067q0 108 57.5 205t149.5 162q20 14 36 14t31 -18l21 -25q17 -22 -6 -45
q-84 -84 -84 -148q0 -29 42 -85t42 -95q0 -59 -41.5 -98t-100.5 -39q-63 0 -105 53t-42 119z" />
    <glyph glyph-name="quotedblright" unicode="&#x201d;" horiz-adv-x="831" 
d="M78 938q-17 22 6 45q84 84 84 147q0 29 -42 85.5t-42 95.5q0 59 41 98t100 39q63 0 105.5 -53t42.5 -119q0 -108 -57.5 -205t-149.5 -162q-20 -14 -37 -14q-16 0 -31 18zM471 938q-17 22 6 45q84 84 84 147q0 29 -42 85.5t-42 95.5q0 59 41 98t100 39q63 0 105.5 -53
t42.5 -119q0 -108 -57.5 -205t-149.5 -162q-20 -14 -37 -14q-15 0 -30 18z" />
    <glyph glyph-name="quotedblbase" unicode="&#x201e;" horiz-adv-x="831" 
d="M78 -272q-17 22 6 45q84 84 84 147q0 29 -42 85t-42 95q0 59 41 98.5t100 39.5q63 0 105.5 -53t42.5 -119q0 -108 -57.5 -205t-149.5 -162q-20 -14 -37 -14q-16 0 -31 18zM471 -272q-17 22 6 45q84 84 84 147q0 29 -42 85t-42 95q0 59 41 98.5t100 39.5q63 0 105.5 -53
t42.5 -119q0 -108 -57.5 -205t-149.5 -162q-20 -14 -37 -14q-15 0 -30 18z" />
    <glyph glyph-name="bullet" unicode="&#x2022;" horiz-adv-x="1034" 
d="M172 551q0 135 101.5 230.5t244.5 95.5q142 0 243 -95.5t101 -230.5t-100.5 -229.5t-243.5 -94.5t-244.5 94.5t-101.5 229.5z" />
    <glyph glyph-name="ellipsis" unicode="&#x2026;" horiz-adv-x="1345" 
d="M90 111q0 63 43 101t103 38q59 0 102 -37.5t43 -99.5q0 -60 -44.5 -99t-100.5 -39q-58 0 -102 37.5t-44 98.5zM539 111q0 63 42.5 101t102.5 38q59 0 102 -37.5t43 -99.5q0 -60 -44.5 -99t-100.5 -39q-58 0 -101.5 37.5t-43.5 98.5zM987 111q0 63 43 101t103 38
q59 0 102 -37.5t43 -99.5q0 -60 -44.5 -99t-100.5 -39q-58 0 -102 37.5t-44 98.5z" />
    <glyph glyph-name="uni202F" unicode="&#x202f;" horiz-adv-x="377" 
 />
    <glyph glyph-name="guilsinglleft" unicode="&#x2039;" horiz-adv-x="567" 
d="M74 471q0 14 14 35l227 289q16 19 30 21.5t30 -7.5l74 -43q19 -11 22.5 -20.5t-6.5 -26.5l-166 -248l166 -248q10 -17 6.5 -26.5t-22.5 -20.5l-74 -43q-16 -10 -30 -7.5t-30 21.5l-227 289q-14 21 -14 35z" />
    <glyph glyph-name="guilsinglright" unicode="&#x203a;" horiz-adv-x="567" 
d="M96 196q-4 9 6 27l166 248l-166 248q-10 18 -6 27t23 20l74 43q16 10 29.5 7.5t29.5 -21.5l227 -289q15 -23 15 -35q0 -13 -15 -35l-227 -289q-16 -19 -29.5 -21.5t-29.5 7.5l-74 43q-19 11 -23 20z" />
    <glyph glyph-name="uni205F" unicode="&#x205f;" horiz-adv-x="471" 
 />
    <glyph glyph-name="Euro" unicode="&#x20ac;" 
d="M51 539v57q0 20 7 26.5t26 6.5h102q-2 25 -2 92h-100q-19 0 -26 6.5t-7 26.5v57q0 20 7 26.5t26 6.5h111q15 269 173 434.5t410 165.5q173 0 324 -82q35 -20 18 -59l-55 -121q-15 -31 -47 -17q-119 58 -223 58q-147 0 -225.5 -102.5t-92.5 -276.5h381q22 0 29 -8.5
t2 -28.5l-12 -53q-4 -21 -12.5 -27t-30.5 -6h-361q0 -67 2 -92h344q22 0 29 -8.5t2 -28.5l-12 -53q-4 -21 -12.5 -27t-30.5 -6h-312q23 -140 104 -224.5t212 -84.5q106 0 219 55q32 14 47 -16l55 -119q18 -40 -18 -60q-151 -82 -324 -82q-249 0 -398 142.5t-179 388.5h-117
q-19 0 -26 6.5t-7 26.5z" />
    <glyph glyph-name="trademark" unicode="&#x2122;" horiz-adv-x="1337" 
d="M57 1333v56q0 28 29 28h426q17 0 22.5 -6t4.5 -25l-7 -55q-2 -13 -7 -19.5t-21 -6.5h-137v-453q0 -31 -29 -31h-88q-29 0 -29 31v453h-135q-16 0 -22.5 5.5t-6.5 22.5zM567 856l23 528q1 20 8 26.5t25 6.5h57q18 0 25 -4t14 -20l176 -385l164 385q6 15 12.5 19.5
t22.5 4.5h59q16 0 23 -5.5t8 -22.5l28 -533q1 -21 -5 -28t-25 -7h-78q-15 0 -22.5 6t-9 13.5t-1.5 19.5l-6 285l-119 -301q-9 -23 -33 -23h-39q-23 0 -34 25l-135 303l-5 -295q0 -33 -34 -33h-68q-31 0 -31 35z" />
    <glyph glyph-name="uni25FC" unicode="&#x25fc;" horiz-adv-x="993" 
d="M0 0v993h993v-993h-993z" />
    </font>
</defs>
</svg>
